<svg width="140" height="16" fill="none" xmlns="http://www.w3.org/2000/svg"><path d="M17.476 3.816v3.962h6.09V3.816h1.4V13h-1.4V9.038h-6.09V13h-1.4V3.816h1.4zM38.16 12.79V13h-1.428l-1.092-2.324h-5.18L29.367 13h-1.428v-.21l4.34-8.974h1.54l4.34 8.974zm-3.122-3.374L33.05 5.202l-1.988 4.214h3.976zm10.465 3.752c-1.074 0-2.012-.187-2.815-.56-.802-.383-1.423-.924-1.861-1.624-.43-.7-.645-1.517-.645-2.45v-.238c0-.933.215-1.75.645-2.45.438-.7 1.059-1.241 1.861-1.624.803-.383 1.741-.574 2.815-.574.97 0 1.843.163 2.617.49.785.327 1.396.78 1.834 1.358.448.57.673 1.209.673 1.918v.126h-1.414v-.126c0-.467-.16-.887-.477-1.26-.317-.373-.76-.667-1.33-.882-.56-.215-1.194-.322-1.904-.322-1.25 0-2.216.29-2.898.868-.672.579-1.008 1.4-1.008 2.464v.266c0 1.064.337 1.885 1.008 2.464.682.57 1.648.854 2.898.854.72 0 1.358-.103 1.919-.308.569-.215 1.008-.509 1.316-.882.317-.373.476-.793.476-1.26v-.14h1.414v.14a3.02 3.02 0 01-.672 1.918c-.44.57-1.05 1.017-1.834 1.344-.775.327-1.648.49-2.618.49zm7.178-8.106V3.816h9.338v1.246h-3.976V13h-1.386V5.062H52.68zm21.232-1.246v.21l-4.018 7.21c-.373.672-.765 1.134-1.176 1.386-.401.252-.947.378-1.638.378h-1.638v-1.246h1.638c.364 0 .64-.047.826-.14.196-.093.374-.266.532-.518l-4.368-7.07v-.21h1.456l3.668 5.978 3.276-5.978h1.442zm11.19 0V13h-1.4V5.062h-5.81V13h-1.4V3.816h8.61zm5.374 0v3.962h6.09V3.816h1.4V13h-1.4V9.038h-6.09V13h-1.4V3.816h1.4zm12.871 0v7.28l6.09-7.28h1.4V13h-1.4V5.72l-6.09 7.28h-1.4V3.816h1.4zm12.87 0v7.28l6.09-7.28h1.4V13h-1.4V5.72l-6.09 7.28h-1.4V3.816h1.4zm3.052-.966c-.97 0-1.708-.163-2.212-.49-.504-.327-.756-.803-.756-1.428V.834h1.232v.098c0 .252.15.448.448.588.299.13.728.196 1.288.196.542 0 .952-.065 1.232-.196.29-.14.434-.336.434-.588V.834h1.302v.098c0 .635-.252 1.115-.756 1.442-.494.317-1.232.476-2.212.476z" fill="#17212B"/><path d="M135 3l3.5 5-3.5 5M4.5 3L1 8l3.5 5" stroke="#17212B" stroke-linecap="round"/></svg>