<svg width="21" height="21" fill="none" xmlns="http://www.w3.org/2000/svg"><path d="M5.25 12.469a1.969 1.969 0 100-3.938 1.969 1.969 0 000 3.938z" stroke="url(#paint0_linear_8_770)" stroke-linecap="round" stroke-linejoin="round"/><path d="M15.75 6.563a1.969 1.969 0 100-3.938 1.969 1.969 0 000 3.938z" stroke="url(#paint1_linear_8_770)" stroke-linecap="round" stroke-linejoin="round"/><path d="M15.75 18.375a1.969 1.969 0 100-3.938 1.969 1.969 0 000 3.938z" stroke="url(#paint2_linear_8_770)" stroke-linecap="round" stroke-linejoin="round"/><path d="M6.965 11.465l7.069 3.976" stroke="url(#paint3_linear_8_770)" stroke-linecap="round" stroke-linejoin="round"/><path d="M14.034 5.559l-7.07 3.976" stroke="url(#paint4_linear_8_770)" stroke-linecap="round" stroke-linejoin="round"/><defs><linearGradient id="paint0_linear_8_770" x1="3.282" y1="10.528" x2="7.219" y2="10.528" gradientUnits="userSpaceOnUse"><stop stop-color="#E53323"/><stop offset="1" stop-color="#F29100"/></linearGradient><linearGradient id="paint1_linear_8_770" x1="13.782" y1="4.622" x2="17.719" y2="4.622" gradientUnits="userSpaceOnUse"><stop stop-color="#E53323"/><stop offset="1" stop-color="#F29100"/></linearGradient><linearGradient id="paint2_linear_8_770" x1="13.782" y1="16.435" x2="17.719" y2="16.435" gradientUnits="userSpaceOnUse"><stop stop-color="#E53323"/><stop offset="1" stop-color="#F29100"/></linearGradient><linearGradient id="paint3_linear_8_770" x1="6.966" y1="13.482" x2="14.034" y2="13.482" gradientUnits="userSpaceOnUse"><stop stop-color="#E53323"/><stop offset="1" stop-color="#F29100"/></linearGradient><linearGradient id="paint4_linear_8_770" x1="6.966" y1="7.575" x2="14.034" y2="7.575" gradientUnits="userSpaceOnUse"><stop stop-color="#E53323"/><stop offset="1" stop-color="#F29100"/></linearGradient></defs></svg>