<svg width="19" height="16" fill="none" xmlns="http://www.w3.org/2000/svg"><path d="M9.207 10.108L5.471 8.242a10.93 10.93 0 001.964-.76l2.12 1.061 7-3.5V3.97A1.555 1.555 0 0015 2.413h-2.604c.238-.498.437-1.019.597-1.556H15a3.111 3.111 0 013.111 3.112v7.777A3.111 3.111 0 0115 14.857H4.111A3.111 3.111 0 011 11.747v-3.22a11.4 11.4 0 001.556.108v3.111a1.556 1.556 0 001.555 1.556H15a1.555 1.555 0 001.556-1.556V6.783l-6.652 3.325a.778.778 0 01-.697 0z" fill="url(#paint0_linear_8_754)" stroke="#fff" stroke-width=".5"/><defs><linearGradient id="paint0_linear_8_754" x1="1.002" y1="7.958" x2="18.112" y2="7.958" gradientUnits="userSpaceOnUse"><stop stop-color="#E53323"/><stop offset="1" stop-color="#F29100"/></linearGradient></defs></svg>