<svg width="19" height="19" fill="none" xmlns="http://www.w3.org/2000/svg"><path d="M17.057 13.19v2.25a1.499 1.499 0 01-1.635 1.5 14.843 14.843 0 01-6.473-2.302 14.625 14.625 0 01-4.5-4.5 14.843 14.843 0 01-2.302-6.503A1.5 1.5 0 013.639 2h2.25a1.5 1.5 0 011.5 1.29 9.63 9.63 0 00.525 2.108 1.5 1.5 0 01-.337 1.582l-.953.953a12 12 0 004.5 4.5l.953-.953a1.5 1.5 0 011.582-.337c.68.253 1.388.43 2.108.525a1.5 1.5 0 011.29 1.522z" stroke="#fff" stroke-width="1.2" stroke-linecap="round" stroke-linejoin="round"/></svg>