<svg width="276" height="37" fill="none" xmlns="http://www.w3.org/2000/svg"><path d="M114.18 14.788c-.986-.895-2.239-1.612-3.583-2.06-1.343-.447-2.776-.626-4.388-.626-1.522 0-2.955.179-4.388.626-1.343.448-2.597 1.165-3.582 2.06a9.384 9.384 0 00-2.418 3.582c-.627 1.433-.895 3.224-.895 5.284v.627c0 2.149.268 3.94.895 5.462.627 1.523 1.433 2.687 2.418 3.672.985.985 2.239 1.702 3.582 2.15 1.344.447 2.776.626 4.388.626 1.523 0 2.956-.179 4.388-.627 1.344-.447 2.597-1.164 3.583-2.149.985-.985 1.88-2.15 2.417-3.672.627-1.522.896-3.313.896-5.462v-.627c0-2.06-.269-3.761-.896-5.284a9.078 9.078 0 00-2.417-3.582zm-2.777 9.493c0 1.343-.179 2.507-.447 3.403-.269.895-.627 1.612-1.165 2.149-.447.537-.985.895-1.611 1.075-.627.179-1.254.358-1.881.358s-1.343-.09-1.881-.358c-.627-.18-1.164-.538-1.612-1.075-.447-.537-.806-1.254-1.164-2.15-.268-.895-.448-1.97-.448-3.402v-.627c0-1.254.18-2.329.448-3.224.269-.896.627-1.523 1.164-2.06.448-.537.985-.806 1.612-1.074a6.82 6.82 0 011.881-.27c.627 0 1.343.09 1.881.27.626.179 1.164.537 1.611 1.074.448.537.806 1.164 1.165 2.06.268.895.447 1.88.447 3.224v.627zm-40.119-.001v-.626c0-2.06-.269-3.761-.896-5.284-.626-1.433-1.432-2.686-2.418-3.582-.984-.895-2.238-1.612-3.582-2.06-1.343-.447-2.776-.626-4.388-.626s-2.955.179-4.388.626c-1.343.448-2.597 1.165-3.582 2.06a9.386 9.386 0 00-2.418 3.582c-.627 1.433-.895 3.224-.895 5.284v.627c0 2.149.269 3.94.895 5.462.627 1.523 1.433 2.687 2.418 3.672.985.985 2.239 1.702 3.582 2.15 1.344.447 2.776.626 4.388.626s2.956-.179 4.388-.627c1.344-.447 2.597-1.164 3.582-2.149.986-.985 1.881-2.15 2.418-3.672.627-1.522.896-3.313.896-5.462zm-6.18 0c0 1.344-.178 2.508-.447 3.404-.269.895-.627 1.612-1.164 2.149-.448.537-.985.895-1.612 1.075-.627.179-1.254.358-1.88.358-.627 0-1.344-.09-1.881-.358-.627-.18-1.164-.538-1.612-1.075-.448-.537-.806-1.254-1.164-2.15-.269-.895-.448-1.97-.448-3.402v-.627c0-1.254.179-2.329.448-3.224.268-.896.627-1.523 1.164-2.06.448-.537.985-.806 1.612-1.074a6.817 6.817 0 011.88-.27c.627 0 1.344.09 1.881.27.627.179 1.164.537 1.612 1.074.448.537.806 1.164 1.164 2.06.269.895.448 1.88.448 3.224v.627zm7.793-6.626h7.164v18.269h5.91v-18.27h7.164V12.73H72.896v4.925zm53.642 10.298h2.418l4.477 7.97h6.627l-5.373-8.596c1.612-.538 2.776-1.433 3.493-2.598.806-1.164 1.164-2.597 1.164-4.298 0-2.418-.717-4.299-2.239-5.642-1.522-1.433-3.672-2.06-6.537-2.06h-10.12v23.195h6v-7.97h.09zm0-10.298h2.776c1.612 0 2.686.268 3.313.716.627.448.896 1.165.896 2.15 0 .985-.269 1.701-.896 2.149-.627.448-1.701.716-3.313.716h-2.776v-5.731zm40.297 9.582h4.298c0 .716-.179 1.343-.448 1.79-.268.538-.626.896-1.164 1.255-.448.358-.985.537-1.612.716a6.205 6.205 0 01-1.791.269c-.716 0-1.433-.09-2.059-.358-.627-.27-1.165-.627-1.612-1.254-.448-.538-.806-1.254-1.075-2.15-.269-.895-.358-1.97-.358-3.134v-.627c0-1.253.089-2.238.358-3.134.269-.806.537-1.522.985-2.06.448-.537.985-.895 1.522-1.074.627-.18 1.254-.359 1.971-.359.447 0 .806 0 1.253.09.448.09.806.269 1.164.448.359.268.717.537.986.985.268.358.537.895.716 1.522h6.269c-.179-1.433-.538-2.597-1.165-3.671-.626-.985-1.343-1.881-2.238-2.508-.896-.627-1.97-1.164-3.135-1.433a16.651 16.651 0 00-3.761-.447c-1.522 0-2.955.268-4.298.716-1.344.448-2.508 1.164-3.582 2.06-.986.895-1.792 2.149-2.418 3.582-.627 1.433-.896 3.224-.896 5.194v.627c0 2.06.269 3.94.896 5.373.537 1.522 1.343 2.776 2.418 3.671.985.985 2.238 1.702 3.582 2.15 1.343.447 2.865.627 4.477.627 1.523 0 2.955-.18 4.299-.627 1.253-.448 2.418-1.075 3.403-1.97.985-.896 1.701-2.06 2.239-3.493.537-1.433.806-3.134.806-5.105v-1.522h-9.941v3.85h-.089zm32.149-2.686c.806-1.164 1.164-2.597 1.164-4.299 0-2.418-.716-4.298-2.238-5.642-1.523-1.432-3.672-2.06-6.538-2.06h-10.119v23.195h6v-7.97h2.418l4.477 7.97h6.627l-5.373-8.597c1.612-.537 2.776-1.433 3.582-2.597zm-5.642-2.06c-.626.448-1.701.716-3.223.716h-2.777v-5.73h2.777c1.612 0 2.686.268 3.223.716.627.447.896 1.164.896 2.149 0 .895-.358 1.612-.896 2.15zm30.358-7.612c-.985-.896-2.239-1.612-3.582-2.06-1.343-.447-2.866-.627-4.388-.627-1.523 0-2.955.18-4.388.627-1.343.448-2.597 1.165-3.582 2.06a9.38 9.38 0 00-2.418 3.582c-.627 1.433-.896 3.224-.896 5.284v.627c0 2.149.269 3.94.896 5.462.627 1.523 1.433 2.687 2.418 3.672.985.985 2.239 1.701 3.582 2.15 1.343.447 2.865.626 4.388.626 1.522 0 2.955-.18 4.388-.627 1.343-.448 2.597-1.164 3.582-2.15.985-.984 1.881-2.148 2.418-3.67.627-1.523.895-3.314.895-5.463v-.627c0-2.06-.268-3.761-.895-5.284-.627-1.522-1.433-2.687-2.418-3.582zm-2.866 9.403c0 1.343-.179 2.507-.447 3.403-.269.895-.627 1.612-1.165 2.15-.447.537-.985.895-1.612 1.074-.626.179-1.253.358-1.88.358s-1.343-.09-1.881-.358c-.627-.18-1.164-.538-1.612-1.075-.447-.537-.806-1.253-1.164-2.15-.269-.895-.448-1.97-.448-3.402v-.627c0-1.254.179-2.328.448-3.224.269-.895.627-1.522 1.164-2.06.448-.537.985-.806 1.612-1.074a6.82 6.82 0 011.881-.269c.627 0 1.343.09 1.88.269.627.179 1.165.537 1.612 1.075.448.537.806 1.164 1.165 2.06.268.895.447 1.88.447 3.223v.627zm25.076 1.522c0 1.792-.269 3.135-.896 4.03-.627.896-1.701 1.344-3.224 1.344-1.522 0-2.597-.448-3.224-1.344-.626-.895-.895-2.238-.895-4.03V12.55h-6v13.97c0 1.612.269 3.045.716 4.209a7.356 7.356 0 002.06 3.045 8.117 8.117 0 003.224 1.79c1.254.449 2.686.628 4.209.628 1.612 0 2.955-.18 4.209-.627 1.253-.448 2.328-.985 3.224-1.791.895-.806 1.522-1.791 1.97-3.045.448-1.254.716-2.597.716-4.209V12.55h-6v13.253h-.089zm20.597-13.253h-9.492v23.194h6V28.4h3.492c3.224 0 5.642-.717 7.164-2.15 1.523-1.433 2.329-3.313 2.329-5.82 0-2.508-.806-4.389-2.329-5.822-1.522-1.343-3.94-2.06-7.164-2.06zm2.508 10.209c-.627.537-1.702.806-3.224.806h-2.866v-6.09h2.866c1.522 0 2.597.269 3.224.806.626.538.895 1.254.895 2.239.09.985-.269 1.701-.895 2.239zM41.553 12.639h-.985l-8.239 14.597-8.418-14.508h-.985l-5.283 23.284h5.641l2.329-10.567 6.268 10.477h.896l6.179-10.477 2.418 10.477h5.642L41.553 12.64zm122.06-4.208h-1.522v-.806c-.448.448-.896.716-1.164.806-.269.09-.627.18-.986.18-.537 0-.985-.18-1.253-.538-.358-.358-.538-.806-.538-1.343 0-.627.269-1.165.717-1.523.537-.358 1.612-.537 3.224-.627v-.179c0-.358-.09-.627-.359-.806-.268-.179-.716-.268-1.253-.268-.448 0-.985.179-1.702.447h-.089V2.521c.806-.18 1.522-.269 2.149-.269.985 0 1.701.18 2.149.448.448.358.627.806.627 1.522v4.21zm-1.522-1.433V5.476c-1.075.09-1.702.179-1.97.358-.269.18-.359.448-.359.716 0 .359.09.538.269.717.179.09.448.179.896.179.358.09.716-.09 1.164-.448zm9.403 1.432V2.52h3.224c.806 0 1.343.09 1.612.359.269.268.448.537.448.985 0 .537-.269.985-.806 1.254v.09c.716.178 1.074.715 1.074 1.432 0 .537-.179.985-.537 1.254-.358.358-.895.537-1.612.537h-3.403zm1.612-4.924v1.432h1.164c.627 0 .896-.268.896-.716 0-.269-.09-.448-.179-.537a1.39 1.39 0 00-.717-.18h-1.164zm0 2.328v1.612h1.433c.269 0 .537-.09.716-.18.179-.178.269-.357.269-.537 0-.537-.358-.806-.985-.806h-1.433v-.09zm16.208-2.239h-1.97V8.43h-1.612V3.595h-1.97V2.43h5.552v1.164zm9.672 5.015c-.985 0-1.701-.27-2.239-.806-.537-.538-.806-1.344-.806-2.329 0-.985.269-1.79.806-2.328.538-.538 1.254-.806 2.239-.806.985 0 1.702.268 2.239.806.537.537.806 1.343.806 2.328 0 .985-.269 1.791-.806 2.329-.537.537-1.254.805-2.239.805zm0-5.195c-.895 0-1.433.717-1.433 2.06s.448 2.06 1.433 2.06c.896 0 1.343-.717 1.343-2.06.09-1.343-.447-2.06-1.343-2.06zm15.224 4.747c-.627.268-1.254.447-1.791.447-1.075 0-1.881-.268-2.418-.806-.627-.537-.896-1.343-.896-2.328 0-.985.269-1.79.896-2.328.627-.538 1.343-.806 2.328-.806.627 0 1.254.179 1.881.448V4.22h-.09c-.537-.537-1.164-.806-1.701-.806-.537 0-.896.18-1.254.538-.268.358-.448.895-.448 1.522s.18 1.164.448 1.433c.269.358.717.537 1.254.537s1.164-.268 1.701-.806h.09v1.523zm12.717-2.418h-4.209c.09 1.165.716 1.792 2.06 1.792.627 0 1.343-.27 2.059-.717h.09v1.343c-.806.27-1.522.448-2.239.448-1.074 0-1.97-.268-2.507-.806-.627-.537-.896-1.254-.896-2.328 0-.985.269-1.791.806-2.329.537-.537 1.343-.895 2.328-.895 1.792 0 2.687.985 2.687 2.866v.626h-.179zm-1.522-.895c0-.985-.448-1.522-1.254-1.522-.896 0-1.343.537-1.433 1.522h2.687zm10.566 3.134v2.597h-1.612V2.52h1.612v.806c.448-.358.806-.627 1.164-.806.269-.09.627-.18.896-.18.716 0 1.254.27 1.612.807.358.537.537 1.254.537 2.239 0 .895-.268 1.701-.716 2.238-.448.627-1.075.896-1.791.896-.538 0-1.075-.18-1.702-.537zm0-4.03v3.313c.269.09.627.18.985.18 1.075 0 1.612-.628 1.612-1.97 0-1.255-.447-1.881-1.343-1.881-.358-.09-.806.09-1.254.358zm11.732 4.477V2.52h3.224c.806 0 1.343.09 1.612.359.269.268.448.537.448.985 0 .537-.269.985-.806 1.254v.09c.716.178 1.074.715 1.074 1.432 0 .537-.179.985-.537 1.254-.358.358-.895.537-1.612.537h-3.403zm1.612-4.924v1.432h1.164c.627 0 .896-.268.896-.716 0-.269-.09-.448-.179-.537a1.39 1.39 0 00-.717-.18h-1.164zm0 2.328v1.612h1.433c.269 0 .537-.09.716-.18.179-.178.269-.357.269-.537 0-.537-.358-.806-.985-.806h-1.433v-.09zm13.164-4.12h-1.702V.281h1.702v1.433zm-.09 6.716h-1.612V2.52h1.612v5.91zm12.628-.268c-.627.268-1.254.447-1.791.447-1.075 0-1.881-.268-2.418-.806-.627-.537-.896-1.343-.896-2.328 0-.985.269-1.79.896-2.328.626-.538 1.343-.806 2.328-.806.627 0 1.254.179 1.881.448V4.22h-.09c-.537-.537-1.164-.806-1.701-.806-.538 0-.896.18-1.254.538-.269.358-.448.895-.448 1.522s.179 1.164.448 1.433c.268.358.716.537 1.254.537.537 0 1.164-.268 1.701-.806h.09v1.523z" fill="#fff"/><path d="M8.865 35.923h5.642l4.567-20.239-3.313-5.82h-.896l-6 26.059z" fill="url(#paint0_linear_8_715)"/><path d="M.09 35.923h5.642l4.656-20.239-3.403-5.82H6.09l-6 26.059z" fill="url(#paint1_linear_8_715)"/><defs><linearGradient id="paint0_linear_8_715" x1="8.797" y1="22.913" x2="19.105" y2="22.913" gradientUnits="userSpaceOnUse"><stop stop-color="#5E2885"/><stop offset=".074" stop-color="#6A378D"/><stop offset=".183" stop-color="#754696"/><stop offset=".31" stop-color="#7B4F9B"/><stop offset=".5" stop-color="#7D529D"/><stop offset="1" stop-color="#A682BA"/></linearGradient><linearGradient id="paint1_linear_8_715" x1=".038" y1="22.913" x2="10.346" y2="22.913" gradientUnits="userSpaceOnUse"><stop stop-color="#E5332A"/><stop offset="1" stop-color="#F29100"/></linearGradient></defs></svg>