<svg width="21" height="18" fill="none" xmlns="http://www.w3.org/2000/svg"><path d="M1 2.874a.889.889 0 01.889-.889h5.333a.889.889 0 110 1.778H1.89A.889.889 0 011 2.874zm.889 2.666a.889.889 0 100 1.778h3.555a.889.889 0 100-1.777H1.89z" fill="#fff" stroke="#0A1630" stroke-width=".5"/><path d="M10.38 11.669L6.11 9.535c.782-.218 1.534-.51 2.245-.867l2.423 1.212 8-4V4.652A1.778 1.778 0 0017 2.874h-2.976c.272-.569.5-1.164.683-1.778H17a3.556 3.556 0 013.556 3.556v8.889A3.556 3.556 0 0117 17.096H4.556A3.556 3.556 0 011 13.541V9.86c.581.081 1.173.124 1.778.124v3.556a1.778 1.778 0 001.778 1.777H17a1.778 1.778 0 001.778-1.777V7.868l-7.602 3.8a.888.888 0 01-.796 0v0z" fill="#fff" stroke="#0A1630" stroke-width=".5"/></svg>