<svg width="20" height="20" fill="none" xmlns="http://www.w3.org/2000/svg"><g opacity=".5"><mask id="path-1-inside-1_8_793" fill="#fff"><path fill-rule="evenodd" clip-rule="evenodd" d="M3.45 9.05L11.1 1.4 9.7 0 0 9.7l9.7 9.7 1.4-1.4-6.95-6.95h14.9v-2H3.45z"/></mask><path fill-rule="evenodd" clip-rule="evenodd" d="M3.45 9.05L11.1 1.4 9.7 0 0 9.7l9.7 9.7 1.4-1.4-6.95-6.95h14.9v-2H3.45z" fill="#fff"/><path d="M11.1 1.4l.354.354.353-.354-.353-.354-.354.354zM3.45 9.05l-.353-.354-.854.854H3.45v-.5zM9.7 0l.354-.354L9.7-.707l-.354.353L9.7 0zM0 9.7l-.354-.354-.353.354.353.354L0 9.7zm9.7 9.7l-.354.354.354.353.354-.353L9.7 19.4zm1.4-1.4l.354.354.353-.354-.353-.354L11.1 18zm-6.95-6.95v-.5H2.943l.853.853.354-.353zm14.9 0v.5h.5v-.5h-.5zm0-2h.5v-.5h-.5v.5zm-8.304-8.004l-7.65 7.65.708.707 7.65-7.65-.708-.707zm-1.4-.692l1.4 1.4.708-.708-1.4-1.4-.708.708zm-8.992 9.7l9.7-9.7-.708-.708-9.7 9.7.708.708zm9.7 8.992l-9.7-9.7-.708.708 9.7 9.7.708-.708zm.692-1.4l-1.4 1.4.708.708 1.4-1.4-.708-.708zm-6.95-6.243l6.95 6.95.708-.707-6.95-6.95-.708.707zm15.255-.853H4.15v1h14.9v-1zm-.5-1.5v2h1v-2h-1zm-15.1.5h15.6v-1H3.45v1z" fill="#17212B" mask="url(#path-1-inside-1_8_793)"/></g></svg>