<svg width="169" height="84" fill="none" xmlns="http://www.w3.org/2000/svg"><path d="M31.346 81.047h-1.884v-.936c-.571.51-1.056.794-1.427.936a3.89 3.89 0 01-1.17.199c-.629 0-1.143-.199-1.571-.596-.4-.397-.628-.937-.628-1.56 0-.796.314-1.42.913-1.846.6-.425 1.885-.68 3.854-.766v-.198c0-.454-.142-.767-.456-.965-.314-.199-.828-.312-1.542-.312-.485 0-1.199.198-2.084.567h-.057v-1.504c.97-.227 1.827-.34 2.598-.34 1.199 0 2.084.198 2.626.596.543.397.8.993.8 1.844v4.881h.028zm-1.884-1.76V77.5c-1.256.113-2.027.255-2.34.482-.315.227-.486.511-.486.908 0 .398.114.681.342.852.229.17.571.227 1.028.227.485 0 .97-.227 1.456-.681zm11.421 1.76v-7.151h3.854c.97 0 1.627.142 1.97.426.342.284.513.68.513 1.192 0 .652-.314 1.192-.97 1.532v.057c.885.255 1.341.823 1.341 1.73 0 .625-.228 1.164-.685 1.562-.456.397-1.113.596-1.97.596h-4.053v.056zm1.884-5.93v1.73h1.399c.742 0 1.113-.283 1.113-.851 0-.312-.086-.54-.257-.681-.171-.142-.485-.199-.885-.199h-1.37zm0 2.78v1.93h1.684c.343 0 .628-.085.828-.255a.88.88 0 00.314-.71c0-.652-.4-.993-1.17-.993h-1.656v.028zm19.553-2.639h-2.37v5.79h-1.913v-5.79h-2.369v-1.362h6.651v1.362zm11.734 6.016c-1.17 0-2.084-.34-2.712-.993-.657-.681-.97-1.59-.97-2.781 0-1.192.313-2.129.97-2.781.656-.681 1.541-.993 2.712-.993 1.17 0 2.055.34 2.712.993.656.68.97 1.589.97 2.78 0 1.193-.314 2.13-.97 2.782-.657.653-1.542.993-2.712.993zm0-6.271c-1.142 0-1.685.823-1.685 2.497 0 1.618.571 2.44 1.713 2.44 1.114 0 1.656-.822 1.656-2.44 0-1.674-.571-2.497-1.684-2.497zm18.352 5.677c-.799.369-1.513.539-2.17.539-1.255 0-2.226-.312-2.94-.965-.713-.653-1.056-1.56-1.056-2.753 0-1.192.343-2.128 1.056-2.809.714-.653 1.656-.993 2.855-.993.771 0 1.513.17 2.255.539v1.731h-.085c-.714-.624-1.399-.936-2.084-.936-.628 0-1.113.227-1.485.652-.342.426-.513 1.022-.513 1.788s.17 1.362.542 1.76c.343.397.856.624 1.513.624.685 0 1.37-.312 2.055-.937h.086v1.76h-.029zm15.389-2.923h-5.082c.086 1.419.885 2.157 2.456 2.157.799 0 1.627-.284 2.455-.88h.057v1.646c-.971.369-1.884.567-2.741.567-1.342 0-2.369-.312-3.083-.965-.714-.624-1.056-1.56-1.056-2.752 0-1.192.342-2.129.999-2.81.657-.68 1.599-1.021 2.769-1.021 2.17 0 3.226 1.135 3.226 3.433v.625zm-1.884-1.05c-.029-1.22-.514-1.845-1.513-1.845-1.057 0-1.599.625-1.685 1.845h3.198zm12.816 3.831v3.065h-1.913v-9.706h1.913v.965c.543-.454.999-.766 1.342-.936a2.886 2.886 0 011.113-.227c.828 0 1.485.312 1.941.965.457.652.686 1.532.686 2.695 0 1.136-.286 2.044-.885 2.753-.6.71-1.314 1.05-2.199 1.05-.57 0-1.256-.227-1.998-.624zm0-4.881V79.6c.343.142.714.2 1.171.2 1.313 0 1.969-.796 1.969-2.385 0-1.504-.542-2.27-1.655-2.27-.457.028-.942.199-1.485.51zm14.162 5.39v-7.151h3.854c.97 0 1.627.142 1.969.426.343.284.514.68.514 1.192 0 .652-.314 1.192-.97 1.532v.057c.885.255 1.341.823 1.341 1.73 0 .625-.228 1.164-.685 1.562-.457.397-1.113.596-1.97.596h-4.053v.056zm1.884-5.93v1.73h1.399c.742 0 1.113-.283 1.113-.851 0-.312-.086-.54-.257-.681-.171-.142-.485-.199-.885-.199h-1.37zm0 2.78v1.93h1.684c.343 0 .628-.085.828-.255a.88.88 0 00.314-.71c0-.652-.4-.993-1.17-.993h-1.656v.028zm15.871-4.88h-2.027v-1.675h2.027v1.675zm-.057 8.03h-1.913v-7.15h1.913v7.15zm15.216-.367c-.799.369-1.513.539-2.17.539-1.256 0-2.226-.312-2.94-.965s-1.056-1.56-1.056-2.753c0-1.192.342-2.128 1.056-2.809.714-.653 1.656-.993 2.855-.993.77 0 1.513.17 2.255.539v1.731h-.086c-.713-.624-1.399-.936-2.084-.936-.628 0-1.113.227-1.484.652-.343.426-.514 1.022-.514 1.788s.171 1.362.542 1.76c.343.397.857.624 1.513.624.686 0 1.371-.312 2.056-.937h.085v1.76h-.028zM137.395 6.356c-1.228-1.107-2.684-1.93-4.311-2.47-1.656-.538-3.397-.794-5.224-.794-1.827 0-3.568.256-5.224.795-1.656.54-3.083 1.334-4.339 2.469-1.228 1.107-2.199 2.525-2.941 4.285-.713 1.731-1.085 3.831-1.085 6.272v.794c0 2.526.372 4.683 1.085 6.47.714 1.788 1.685 3.236 2.941 4.4a11.632 11.632 0 004.339 2.525c1.656.539 3.397.794 5.224.794 1.827 0 3.568-.255 5.224-.794 1.656-.54 3.083-1.362 4.311-2.526 1.227-1.135 2.198-2.61 2.94-4.399.714-1.787 1.085-3.944 1.085-6.47v-.794c0-2.441-.371-4.513-1.085-6.272-.742-1.76-1.713-3.178-2.94-4.285zm-3.426 11.323c0 1.646-.171 2.98-.514 4.03-.342 1.05-.799 1.9-1.341 2.525-.571.624-1.199 1.05-1.942 1.306a7.044 7.044 0 01-2.312.369 7.03 7.03 0 01-2.312-.37 4.447 4.447 0 01-1.942-1.305c-.571-.624-.999-1.447-1.341-2.526-.343-1.05-.514-2.412-.514-4.03v-.794c0-1.532.171-2.81.514-3.83.342-1.023.799-1.817 1.341-2.413.571-.596 1.199-1.022 1.942-1.249a7.88 7.88 0 012.312-.369c.799 0 1.57.114 2.312.37a4.324 4.324 0 011.942 1.248c.57.596.999 1.39 1.341 2.412.343 1.022.514 2.299.514 3.831v.795zm-48.129 0v-.795c0-2.44-.37-4.512-1.084-6.271-.714-1.731-1.684-3.179-2.94-4.286-1.228-1.106-2.684-1.93-4.311-2.468-1.656-.54-3.397-.795-5.224-.795-1.827 0-3.569.255-5.225.795-1.655.539-3.083 1.333-4.31 2.468-1.228 1.107-2.198 2.526-2.94 4.286-.714 1.73-1.085 3.83-1.085 6.271v.795c0 2.526.37 4.682 1.085 6.47.713 1.788 1.684 3.235 2.94 4.399a11.75 11.75 0 004.31 2.525c1.656.54 3.398.795 5.225.795 1.827 0 3.568-.255 5.224-.795 1.656-.539 3.083-1.362 4.31-2.525 1.228-1.135 2.199-2.611 2.94-4.399.743-1.76 1.086-3.916 1.086-6.47zm-7.393 0c0 1.646-.171 2.98-.514 4.03-.343 1.05-.8 1.9-1.342 2.525-.57.625-1.199 1.05-1.94 1.306a7.046 7.046 0 01-2.313.369c-.8 0-1.57-.114-2.313-.37a4.445 4.445 0 01-1.94-1.305c-.572-.624-1-1.447-1.342-2.525-.343-1.05-.514-2.413-.514-4.03v-.795c0-1.532.17-2.81.514-3.83.342-1.023.799-1.817 1.341-2.413.571-.596 1.2-1.022 1.941-1.249a7.881 7.881 0 012.313-.369c.8 0 1.57.114 2.312.37a4.322 4.322 0 011.941 1.248c.571.596 1 1.39 1.342 2.412.343 1.022.514 2.299.514 3.831v.795zm9.334-7.975h8.593v21.88h7.165V9.704h8.565V3.858H87.781v5.846zm64.402 12.372h2.94l5.424 9.507h7.965L162.06 21.31c1.884-.652 3.312-1.702 4.254-3.121.942-1.42 1.427-3.122 1.427-5.08 0-2.838-.885-5.108-2.683-6.783-1.77-1.674-4.396-2.497-7.879-2.497h-12.161v27.726h7.165v-9.479zm0-12.373h3.397c1.913 0 3.226.284 3.94.852.713.567 1.056 1.419 1.056 2.554 0 1.135-.343 1.986-1.056 2.554-.714.567-2.027.851-3.94.851h-3.397v-6.81zM105.88 41.148c-1.228-1.107-2.684-1.93-4.311-2.47-1.655-.538-3.397-.794-5.224-.794-1.827 0-3.568.256-5.224.795-1.656.54-3.083 1.334-4.31 2.469-1.228 1.106-2.199 2.525-2.941 4.285-.714 1.731-1.085 3.831-1.085 6.272v.794c0 2.526.371 4.683 1.085 6.47.714 1.788 1.684 3.236 2.94 4.4a11.752 11.752 0 004.311 2.525c1.656.539 3.397.794 5.224.794 1.827 0 3.569-.255 5.224-.794 1.656-.54 3.083-1.362 4.311-2.526 1.227-1.135 2.198-2.61 2.94-4.399.714-1.787 1.085-3.944 1.085-6.47v-.794c0-2.441-.371-4.513-1.085-6.272-.713-1.76-1.713-3.178-2.94-4.285zm-3.397 11.323c0 1.646-.171 2.98-.514 4.03-.343 1.05-.799 1.9-1.342 2.525-.571.624-1.199 1.05-1.941 1.306a7.046 7.046 0 01-2.312.368c-.8 0-1.57-.113-2.313-.368a4.446 4.446 0 01-1.94-1.306c-.572-.624-1-1.447-1.343-2.526-.342-1.05-.514-2.412-.514-4.03v-.794c0-1.532.172-2.81.514-3.83.343-1.022.8-1.817 1.342-2.413.571-.596 1.2-1.022 1.941-1.249a7.88 7.88 0 012.313-.369c.799 0 1.57.114 2.312.37a4.32 4.32 0 011.941 1.248c.571.596.999 1.39 1.342 2.412.343 1.022.514 2.299.514 3.831v.795zm30.059 1.788c0 2.1-.371 3.718-1.084 4.824-.714 1.107-2.027 1.646-3.911 1.646-1.827 0-3.112-.539-3.854-1.646-.742-1.106-1.114-2.724-1.114-4.852V38.424h-7.165v16.63c0 1.93.286 3.632.856 5.08.571 1.447 1.371 2.667 2.427 3.632 1.056.965 2.312 1.702 3.825 2.185 1.513.482 3.169.738 5.053.738s3.569-.256 5.082-.738c1.513-.483 2.769-1.22 3.825-2.185 1.056-.965 1.856-2.185 2.398-3.633.571-1.447.828-3.15.828-5.08v-16.63h-7.166V54.26zm33.372-13.339c-1.856-1.674-4.711-2.526-8.593-2.526h-11.362V66.12h7.165v-8.797h4.197c3.882 0 6.737-.852 8.593-2.526 1.855-1.674 2.769-4.001 2.769-6.953 0-2.922-.942-5.25-2.769-6.924zm-5.539 9.649c-.742.596-2.026.908-3.854.908h-3.397v-7.208h3.397c1.828 0 3.112.312 3.854.908.743.596 1.114 1.504 1.114 2.696 0 1.192-.371 2.1-1.114 2.696zM31.773 19.552l7.137 12.032h1.57l7.108-12.032 2.74 12.032h7.195L51.014 3.603h-1.456L39.681 20.8 29.86 3.717l-.058-.114h-1.456l-6.48 27.981h7.166l2.74-12.032zm5.28 31.868v4.513h5.252c-.028.851-.228 1.56-.57 2.157a5.234 5.234 0 01-1.371 1.475 6.06 6.06 0 01-1.941.88 8.2 8.2 0 01-2.198.284c-.914 0-1.742-.142-2.484-.454a5.052 5.052 0 01-1.941-1.447c-.543-.653-.942-1.505-1.256-2.555-.314-1.05-.457-2.298-.457-3.774v-.794c0-1.476.143-2.725.428-3.718.286-.993.685-1.816 1.2-2.412.513-.596 1.141-1.05 1.883-1.306a7.199 7.199 0 012.398-.397c.486 0 1 .057 1.485.17.485.114.97.284 1.398.568.429.284.828.653 1.2 1.135.342.483.628 1.079.827 1.816h7.651c-.228-1.702-.685-3.15-1.427-4.37a13.61 13.61 0 00-.543-.823c-.628-.851-1.341-1.59-2.198-2.185a11.614 11.614 0 00-3.797-1.731 18.364 18.364 0 00-4.596-.568 16.69 16.69 0 00-5.252.823c-1.656.54-3.084 1.362-4.311 2.498a9.98 9.98 0 00-1.056 1.135c-.743.908-1.37 1.93-1.856 3.121-.714 1.731-1.056 3.803-1.056 6.187v.794c0 2.498.342 4.654 1.056 6.47.714 1.788 1.656 3.264 2.912 4.428a11.533 11.533 0 004.368 2.525c1.684.54 3.511.795 5.48.795 1.885 0 3.626-.255 5.196-.766 1.57-.511 2.94-1.306 4.083-2.384 1.142-1.078 2.055-2.469 2.683-4.172.657-1.702.97-3.717.97-6.101v-1.873h-12.16v.057zm34.97 4.456c1.884-.653 3.312-1.703 4.254-3.122.942-1.419 1.427-3.122 1.427-5.08 0-2.838-.885-5.108-2.683-6.782-1.77-1.675-4.397-2.498-7.88-2.498H54.98V66.12h7.166v-9.507h2.94l5.424 9.507h7.965l-6.452-10.244zm-2.569-5.648c-.714.568-1.998.852-3.911.852h-3.397v-6.811h3.397c1.913 0 3.226.284 3.911.851.714.568 1.056 1.42 1.056 2.554 0 1.135-.37 1.987-1.056 2.554z" fill="#fff"/><path d="M23.866 7.292L19.87.311h-1.455l-7.309 31.273h7.137l5.624-24.292z" fill="url(#paint0_linear_8_513)"/><path d="M13.102 7.292L9.106.311H7.65L.342 31.584h7.137l5.623-24.292z" fill="url(#paint1_linear_8_513)"/><defs><linearGradient id="paint0_linear_8_513" x1="11.05" y1="15.955" x2="23.873" y2="15.955" gradientUnits="userSpaceOnUse"><stop stop-color="#702382"/><stop offset=".067" stop-color="#6E3089"/><stop offset=".177" stop-color="#6C3F92"/><stop offset=".307" stop-color="#6A4896"/><stop offset=".5" stop-color="#6A4B98"/><stop offset="1" stop-color="#987BB6"/></linearGradient><linearGradient id="paint1_linear_8_513" x1=".278" y1="15.955" x2="13.101" y2="15.955" gradientUnits="userSpaceOnUse"><stop stop-color="#E5332A"/><stop offset="1" stop-color="#F29100"/></linearGradient></defs></svg>