<svg width="30" height="77" fill="none" xmlns="http://www.w3.org/2000/svg"><g filter="url(#filter0_d_13_819)"><rect x="12.5" y="7.949" width="4.777" height="8.005" rx="1.5" stroke="#C2C2C2"/><path d="M14.815 45.426a.5.5 0 111 0h-1zm.853 17.053a.5.5 0 01-.707 0l-3.182-3.181a.5.5 0 01.707-.708l2.829 2.829 2.828-2.828a.5.5 0 11.707.707l-3.182 3.181zm.147-17.053v16.7h-1v-16.7h1z" fill="#C2C2C2"/><path d="M8 .5h14A3.5 3.5 0 0125.5 4v21a7.5 7.5 0 01-7.5 7.5h-6A7.5 7.5 0 014.5 25V4A3.5 3.5 0 018 .5z" stroke="#C2C2C2"/></g><defs><filter id="filter0_d_13_819" x="0" y="0" width="30" height="76.626" filterUnits="userSpaceOnUse" color-interpolation-filters="sRGB"><feFlood flood-opacity="0" result="BackgroundImageFix"/><feColorMatrix in="SourceAlpha" values="0 0 0 0 0 0 0 0 0 0 0 0 0 0 0 0 0 0 127 0" result="hardAlpha"/><feOffset dy="10"/><feGaussianBlur stdDeviation="2"/><feComposite in2="hardAlpha" operator="out"/><feColorMatrix values="0 0 0 0 0 0 0 0 0 0 0 0 0 0 0 0 0 0 0.25 0"/><feBlend in2="BackgroundImageFix" result="effect1_dropShadow_13_819"/><feBlend in="SourceGraphic" in2="effect1_dropShadow_13_819" result="shape"/></filter></defs></svg>