<svg width="20" height="20" fill="none" xmlns="http://www.w3.org/2000/svg"><mask id="path-1-inside-1_8_796" fill="#fff"><path fill-rule="evenodd" clip-rule="evenodd" d="M15.6 9.05L7.95 1.4 9.35 0l9.7 9.7-9.7 9.7-1.4-1.4 6.95-6.95H0v-2h15.6z"/></mask><path fill-rule="evenodd" clip-rule="evenodd" d="M15.6 9.05L7.95 1.4 9.35 0l9.7 9.7-9.7 9.7-1.4-1.4 6.95-6.95H0v-2h15.6z" fill="#fff"/><path d="M7.95 1.4l-.353.354-.353-.354.353-.354.354.354zm7.65 7.65l.354-.354.854.854H15.6v-.5zM9.35 0l-.353-.354.354-.353.353.353L9.351 0zm9.7 9.7l.354-.354.354.354-.354.354-.353-.354zm-9.7 9.7l.354.354-.353.353-.354-.353.354-.354zM7.95 18l-.353.354L7.244 18l.353-.354.354.354zm6.95-6.95v-.5h1.208l-.854.853-.353-.353zm-14.9 0v.5h-.5v-.5H0zm0-2h-.5v-.5H0v.5zm8.304-8.004l7.65 7.65-.707.707-7.65-7.65.707-.707zm1.4-.692l-1.4 1.4-.707-.708 1.4-1.4.707.708zm8.993 9.7l-9.7-9.7.707-.708 9.7 9.7-.707.708zm-9.7 8.992l9.7-9.7.707.708-9.7 9.7-.707-.708zm-.693-1.4l1.4 1.4-.707.708-1.4-1.4.707-.708zm6.95-6.243l-6.95 6.95-.707-.707 6.95-6.95.707.707zM0 10.55h14.9v1H0v-1zm.5-1.5v2h-1v-2h1zm15.1.5H0v-1h15.6v1z" fill="#17212B" mask="url(#path-1-inside-1_8_796)"/></svg>