<svg width="140" height="16" viewBox="0 0 140 16" fill="none" xmlns="http://www.w3.org/2000/svg">
<path d="M17.4763 3.816V7.778H23.5663V3.816H24.9663V13H23.5663V9.038H17.4763V13H16.0763V3.816H17.4763ZM38.159 12.79V13H36.731L35.639 10.676H30.459L29.367 13H27.939V12.79L32.279 3.816H33.819L38.159 12.79ZM35.037 9.416L33.049 5.202L31.061 9.416H35.037ZM45.5015 13.168C44.4282 13.168 43.4902 12.9813 42.6875 12.608C41.8849 12.2253 41.2642 11.684 40.8255 10.984C40.3962 10.284 40.1815 9.46733 40.1815 8.534V8.296C40.1815 7.36267 40.3962 6.546 40.8255 5.846C41.2642 5.146 41.8849 4.60467 42.6875 4.222C43.4902 3.83933 44.4282 3.648 45.5015 3.648C46.4722 3.648 47.3449 3.81133 48.1195 4.138C48.9035 4.46467 49.5149 4.91733 49.9535 5.496C50.4015 6.06533 50.6256 6.70467 50.6256 7.414V7.54H49.2115V7.414C49.2115 6.94733 49.0529 6.52733 48.7355 6.154C48.4182 5.78067 47.9749 5.48667 47.4055 5.272C46.8455 5.05733 46.2109 4.95 45.5015 4.95C44.2509 4.95 43.2849 5.23933 42.6035 5.818C41.9315 6.39667 41.5955 7.218 41.5955 8.282V8.548C41.5955 9.612 41.9315 10.4333 42.6035 11.012C43.2849 11.5813 44.2509 11.866 45.5015 11.866C46.2202 11.866 46.8595 11.7633 47.4195 11.558C47.9889 11.3433 48.4275 11.0493 48.7355 10.676C49.0529 10.3027 49.2115 9.88267 49.2115 9.416V9.276H50.6256V9.416C50.6256 10.1253 50.4015 10.7647 49.9535 11.334C49.5149 11.9033 48.9035 12.3513 48.1195 12.678C47.3449 13.0047 46.4722 13.168 45.5015 13.168ZM52.6797 5.062V3.816H62.0177V5.062H58.0417V13H56.6557V5.062H52.6797ZM73.9124 3.816V4.026L69.8944 11.236C69.521 11.908 69.129 12.37 68.7184 12.622C68.317 12.874 67.771 13 67.0804 13H65.4424V11.754H67.0804C67.4444 11.754 67.7197 11.7073 67.9064 11.614C68.1024 11.5207 68.2797 11.348 68.4384 11.096L64.0704 4.026V3.816H65.5264L69.1944 9.794L72.4704 3.816H73.9124ZM85.1023 3.816V13H83.7023V5.062H77.8923V13H76.4923V3.816H85.1023ZM90.4759 3.816V7.778H96.5659V3.816H97.9659V13H96.5659V9.038H90.4759V13H89.0759V3.816H90.4759ZM103.347 3.816V11.096L109.437 3.816H110.837V13H109.437V5.72L103.347 13H101.947V3.816H103.347ZM116.217 3.816V11.096L122.307 3.816H123.707V13H122.307V5.72L116.217 13H114.817V3.816H116.217ZM119.269 2.85C118.299 2.85 117.561 2.68667 117.057 2.36C116.553 2.03333 116.301 1.55733 116.301 0.931999V0.834H117.533V0.931999C117.533 1.184 117.683 1.38 117.981 1.52C118.28 1.65067 118.709 1.716 119.269 1.716C119.811 1.716 120.221 1.65067 120.501 1.52C120.791 1.38 120.935 1.184 120.935 0.931999V0.834H122.237V0.931999C122.237 1.56667 121.985 2.04733 121.481 2.374C120.987 2.69133 120.249 2.85 119.269 2.85Z" fill="#17212B"/>
<path d="M135 3L138.5 8L135 13" stroke="#17212B" stroke-linecap="round"/>
<path d="M4.5 3L1 8L4.5 13" stroke="#17212B" stroke-linecap="round"/>
</svg>
