<svg width="20" height="20" viewBox="0 0 20 20" fill="none" xmlns="http://www.w3.org/2000/svg">
<path d="M18.457 8.04688H13.457C13.3711 8.04688 13.3008 8.11719 13.3008 8.20313V9.14063C13.3008 9.22656 13.3711 9.29688 13.457 9.29688H18.457C18.543 9.29688 18.6133 9.22656 18.6133 9.14063V8.20313C18.6133 8.11719 18.543 8.04688 18.457 8.04688ZM15.8398 10.7031H13.457C13.3711 10.7031 13.3008 10.7734 13.3008 10.8594V11.7969C13.3008 11.8828 13.3711 11.9531 13.457 11.9531H15.8398C15.9258 11.9531 15.9961 11.8828 15.9961 11.7969V10.8594C15.9961 10.7734 15.9258 10.7031 15.8398 10.7031ZM9.32227 6.29883H8.47656C8.35547 6.29883 8.25781 6.39648 8.25781 6.51758V11.3613C8.25781 11.4316 8.29102 11.4961 8.34766 11.5371L11.2559 13.6582C11.3535 13.7285 11.4902 13.709 11.5605 13.6113L12.0625 12.9258V12.9238C12.1328 12.8262 12.1113 12.6895 12.0137 12.6191L9.53906 10.8301V6.51758C9.54102 6.39648 9.44141 6.29883 9.32227 6.29883Z" fill="url(#paint0_linear_8_767)"/>
<path d="M15.7188 13.1622H14.5899C14.4805 13.1622 14.377 13.2189 14.3184 13.3126C14.0703 13.7052 13.7813 14.0685 13.4492 14.4005C12.877 14.9728 12.211 15.422 11.4707 15.7345C10.7031 16.0587 9.88869 16.2228 9.04884 16.2228C8.20705 16.2228 7.39259 16.0587 6.62697 15.7345C5.88673 15.422 5.22072 14.9728 4.64845 14.4005C4.07619 13.8282 3.62697 13.1622 3.31447 12.422C2.99025 11.6564 2.82619 10.8419 2.82619 10.0001C2.82619 9.15831 2.99025 8.34581 3.31447 7.57823C3.62697 6.838 4.07619 6.17198 4.64845 5.59972C5.22072 5.02745 5.88673 4.57823 6.62697 4.26573C7.39259 3.94151 8.209 3.77745 9.04884 3.77745C9.89064 3.77745 10.7051 3.94151 11.4707 4.26573C12.211 4.57823 12.877 5.02745 13.4492 5.59972C13.7813 5.93175 14.0703 6.29503 14.3184 6.68761C14.377 6.78136 14.4805 6.838 14.5899 6.838H15.7188C15.8535 6.838 15.9395 6.69737 15.8789 6.57823C14.6055 4.04503 12.0235 2.39854 9.14064 2.36534C4.91994 2.31261 1.41408 5.76769 1.40626 9.98448C1.39845 14.2091 4.82228 17.6368 9.04689 17.6368C11.9668 17.6368 14.5918 15.9845 15.8789 13.422C15.9395 13.3028 15.8516 13.1622 15.7188 13.1622Z" fill="url(#paint1_linear_8_767)"/>
<defs>
<linearGradient id="paint0_linear_8_767" x1="8.25931" y1="10.0527" x2="18.6137" y2="10.0527" gradientUnits="userSpaceOnUse">
<stop stop-color="#E53323"/>
<stop offset="1" stop-color="#F29100"/>
</linearGradient>
<linearGradient id="paint1_linear_8_767" x1="1.40834" y1="10.1106" x2="15.8993" y2="10.1106" gradientUnits="userSpaceOnUse">
<stop stop-color="#E53323"/>
<stop offset="1" stop-color="#F29100"/>
</linearGradient>
</defs>
</svg>
