<svg width="18" height="18" viewBox="0 0 18 18" fill="none" xmlns="http://www.w3.org/2000/svg">
<path d="M16.4166 13.3947V15.7697C16.4175 15.9902 16.3724 16.2085 16.284 16.4105C16.1957 16.6125 16.0662 16.7938 15.9037 16.9429C15.7412 17.0919 15.5494 17.2054 15.3406 17.2761C15.1317 17.3467 14.9104 17.3729 14.6908 17.3531C12.2547 17.0884 9.91468 16.2559 7.85872 14.9227C5.94592 13.7072 4.32419 12.0855 3.10872 10.1727C1.77078 8.10737 0.93816 5.75595 0.678301 3.30892C0.658517 3.09 0.684535 2.86935 0.754697 2.66104C0.824859 2.45272 0.937628 2.2613 1.08582 2.09895C1.23402 1.93661 1.4144 1.8069 1.61547 1.71808C1.81654 1.62927 2.0339 1.58329 2.25372 1.58308H4.62872C5.01292 1.5793 5.38539 1.71536 5.6767 1.96588C5.96801 2.21641 6.15828 2.56431 6.21205 2.94475C6.31229 3.7048 6.4982 4.45108 6.76622 5.16933C6.87273 5.45269 6.89578 5.76064 6.83264 6.0567C6.7695 6.35275 6.62282 6.6245 6.40997 6.83975L5.40455 7.84517C6.53153 9.82714 8.17258 11.4682 10.1546 12.5952L11.16 11.5897C11.3752 11.3769 11.647 11.2302 11.943 11.1671C12.2391 11.1039 12.547 11.127 12.8304 11.2335C13.5486 11.5015 14.2949 11.6874 15.055 11.7877C15.4395 11.8419 15.7907 12.0356 16.0418 12.3319C16.2929 12.6282 16.4263 13.0065 16.4166 13.3947Z" stroke="url(#paint0_linear_8_746)" stroke-width="1.2" stroke-linecap="round" stroke-linejoin="round"/>
<defs>
<linearGradient id="paint0_linear_8_746" x1="0.674149" y1="9.58472" x2="16.4178" y2="9.58472" gradientUnits="userSpaceOnUse">
<stop stop-color="#E53323"/>
<stop offset="1" stop-color="#F29100"/>
</linearGradient>
</defs>
</svg>
