<svg width="19" height="16" viewBox="0 0 19 16" fill="none" xmlns="http://www.w3.org/2000/svg">
<path d="M9.20711 10.1083L5.47067 8.24164C6.15511 8.05031 6.81311 7.7952 7.43533 7.48253L9.55556 8.54342L16.5556 5.04342V3.96853C16.5556 3.55597 16.3917 3.16031 16.0999 2.86859C15.8082 2.57687 15.4126 2.41298 15 2.41298H12.396C12.634 1.9152 12.8331 1.39409 12.9933 0.857422H15C15.8251 0.857422 16.6164 1.1852 17.1999 1.76865C17.7833 2.35209 18.1111 3.14341 18.1111 3.96853V11.7463C18.1111 12.5714 17.7833 13.3628 17.1999 13.9462C16.6164 14.5296 15.8251 14.8574 15 14.8574H4.11111C3.28599 14.8574 2.49467 14.5296 1.91122 13.9462C1.32778 13.3628 1 12.5714 1 11.7463V8.52631C1.50867 8.59787 2.02667 8.6352 2.55556 8.6352V11.7463C2.55556 12.1589 2.71944 12.5545 3.01117 12.8463C3.30289 13.138 3.69855 13.3019 4.11111 13.3019H15C15.4126 13.3019 15.8082 13.138 16.0999 12.8463C16.3917 12.5545 16.5556 12.1589 16.5556 11.7463V6.78253L9.904 10.1083C9.79584 10.1625 9.67653 10.1907 9.55556 10.1907C9.43458 10.1907 9.31527 10.1625 9.20711 10.1083Z" fill="url(#paint0_linear_8_754)" stroke="white" stroke-width="0.5"/>
<defs>
<linearGradient id="paint0_linear_8_754" x1="1.00247" y1="7.95811" x2="18.1118" y2="7.95811" gradientUnits="userSpaceOnUse">
<stop stop-color="#E53323"/>
<stop offset="1" stop-color="#F29100"/>
</linearGradient>
</defs>
</svg>
