<svg width="21" height="21" viewBox="0 0 21 21" fill="none" xmlns="http://www.w3.org/2000/svg">
<path d="M5.25 12.4688C6.33731 12.4688 7.21875 11.5873 7.21875 10.5C7.21875 9.41269 6.33731 8.53125 5.25 8.53125C4.16269 8.53125 3.28125 9.41269 3.28125 10.5C3.28125 11.5873 4.16269 12.4688 5.25 12.4688Z" stroke="url(#paint0_linear_8_770)" stroke-linecap="round" stroke-linejoin="round"/>
<path d="M15.75 6.5625C16.8373 6.5625 17.7188 5.68106 17.7188 4.59375C17.7188 3.50644 16.8373 2.625 15.75 2.625C14.6627 2.625 13.7812 3.50644 13.7812 4.59375C13.7812 5.68106 14.6627 6.5625 15.75 6.5625Z" stroke="url(#paint1_linear_8_770)" stroke-linecap="round" stroke-linejoin="round"/>
<path d="M15.75 18.375C16.8373 18.375 17.7188 17.4936 17.7188 16.4062C17.7188 15.3189 16.8373 14.4375 15.75 14.4375C14.6627 14.4375 13.7812 15.3189 13.7812 16.4062C13.7812 17.4936 14.6627 18.375 15.75 18.375Z" stroke="url(#paint2_linear_8_770)" stroke-linecap="round" stroke-linejoin="round"/>
<path d="M6.96484 11.4651L14.0335 15.4411" stroke="url(#paint3_linear_8_770)" stroke-linecap="round" stroke-linejoin="round"/>
<path d="M14.0335 5.55884L6.96484 9.53489" stroke="url(#paint4_linear_8_770)" stroke-linecap="round" stroke-linejoin="round"/>
<defs>
<linearGradient id="paint0_linear_8_770" x1="3.28182" y1="10.5283" x2="7.21892" y2="10.5283" gradientUnits="userSpaceOnUse">
<stop stop-color="#E53323"/>
<stop offset="1" stop-color="#F29100"/>
</linearGradient>
<linearGradient id="paint1_linear_8_770" x1="13.7818" y1="4.62207" x2="17.7189" y2="4.62207" gradientUnits="userSpaceOnUse">
<stop stop-color="#E53323"/>
<stop offset="1" stop-color="#F29100"/>
</linearGradient>
<linearGradient id="paint2_linear_8_770" x1="13.7818" y1="16.4346" x2="17.7189" y2="16.4346" gradientUnits="userSpaceOnUse">
<stop stop-color="#E53323"/>
<stop offset="1" stop-color="#F29100"/>
</linearGradient>
<linearGradient id="paint3_linear_8_770" x1="6.96586" y1="13.4817" x2="14.0338" y2="13.4817" gradientUnits="userSpaceOnUse">
<stop stop-color="#E53323"/>
<stop offset="1" stop-color="#F29100"/>
</linearGradient>
<linearGradient id="paint4_linear_8_770" x1="6.96586" y1="7.57546" x2="14.0338" y2="7.57546" gradientUnits="userSpaceOnUse">
<stop stop-color="#E53323"/>
<stop offset="1" stop-color="#F29100"/>
</linearGradient>
</defs>
</svg>
