<svg width="19" height="19" viewBox="0 0 19 19" fill="none" xmlns="http://www.w3.org/2000/svg">
<path d="M17.0567 13.1901V15.4401C17.0576 15.6489 17.0148 15.8557 16.9311 16.0471C16.8474 16.2385 16.7247 16.4103 16.5708 16.5515C16.4169 16.6927 16.2351 16.8002 16.0373 16.8671C15.8394 16.934 15.6297 16.9589 15.4217 16.9401C13.1138 16.6893 10.897 15.9007 8.94921 14.6376C7.13708 13.4861 5.60071 11.9497 4.44921 10.1376C3.1817 8.18098 2.39289 5.95332 2.14671 3.63507C2.12797 3.42767 2.15262 3.21864 2.21909 3.02129C2.28556 2.82394 2.39239 2.64259 2.53279 2.48879C2.67318 2.33499 2.84407 2.2121 3.03456 2.12796C3.22505 2.04382 3.43097 2.00027 3.63921 2.00007H5.88921C6.25319 1.99649 6.60606 2.12538 6.88203 2.36272C7.15801 2.60006 7.33827 2.92966 7.38921 3.29007C7.48418 4.01012 7.6603 4.71712 7.91421 5.39757C8.01512 5.66602 8.03696 5.95776 7.97714 6.23823C7.91733 6.51871 7.77836 6.77616 7.57671 6.98007L6.62421 7.93257C7.69188 9.81023 9.24655 11.3649 11.1242 12.4326L12.0767 11.4801C12.2806 11.2784 12.5381 11.1395 12.8186 11.0796C13.099 11.0198 13.3908 11.0417 13.6592 11.1426C14.3397 11.3965 15.0467 11.5726 15.7667 11.6676C16.131 11.719 16.4638 11.9025 16.7016 12.1832C16.9395 12.4639 17.0658 12.8223 17.0567 13.1901Z" stroke="white" stroke-width="1.2" stroke-linecap="round" stroke-linejoin="round"/>
</svg>
