<svg width="276" height="37" viewBox="0 0 276 37" fill="none" xmlns="http://www.w3.org/2000/svg">
<path d="M114.18 14.7881C113.194 13.8926 111.941 13.1762 110.597 12.7284C109.254 12.2807 107.821 12.1016 106.209 12.1016C104.687 12.1016 103.254 12.2807 101.821 12.7284C100.478 13.1762 99.2243 13.8926 98.2392 14.7881C97.2541 15.6837 96.3586 16.9374 95.8213 18.3702C95.1944 19.8031 94.9258 21.5941 94.9258 23.6538V24.2807C94.9258 26.4299 95.1944 28.221 95.8213 29.7434C96.4482 31.2657 97.2541 32.4299 98.2392 33.415C99.2243 34.4001 100.478 35.1165 101.821 35.5643C103.165 36.012 104.597 36.1911 106.209 36.1911C107.732 36.1911 109.165 36.012 110.597 35.5643C111.941 35.1165 113.194 34.4001 114.18 33.415C115.165 32.4299 116.06 31.2657 116.597 29.7434C117.224 28.221 117.493 26.4299 117.493 24.2807V23.6538C117.493 21.5941 117.224 19.8926 116.597 18.3702C116.06 16.9374 115.254 15.7732 114.18 14.7881ZM111.403 24.2807C111.403 25.624 111.224 26.7881 110.956 27.6836C110.687 28.5792 110.329 29.2956 109.791 29.8329C109.344 30.3702 108.806 30.7284 108.18 30.9075C107.553 31.0866 106.926 31.2657 106.299 31.2657C105.672 31.2657 104.956 31.1762 104.418 30.9075C103.791 30.7284 103.254 30.3702 102.806 29.8329C102.359 29.2956 102 28.5792 101.642 27.6836C101.374 26.7881 101.194 25.7135 101.194 24.2807V23.6538C101.194 22.4001 101.374 21.3254 101.642 20.4299C101.911 19.5344 102.269 18.9075 102.806 18.3702C103.254 17.8329 103.791 17.5643 104.418 17.2956C105.045 17.1165 105.672 17.0269 106.299 17.0269C106.926 17.0269 107.642 17.1165 108.18 17.2956C108.806 17.4747 109.344 17.8329 109.791 18.3702C110.239 18.9075 110.597 19.5344 110.956 20.4299C111.224 21.3254 111.403 22.3105 111.403 23.6538V24.2807Z" fill="white"/>
<path d="M71.284 24.2807V23.6538C71.284 21.5941 71.0153 19.8926 70.3885 18.3702C69.7616 16.9374 68.9556 15.6837 67.9705 14.7881C66.9855 13.8926 65.7317 13.1762 64.3884 12.7284C63.0452 12.2807 61.6123 12.1016 60.0004 12.1016C58.3884 12.1016 57.0452 12.2807 55.6123 12.7284C54.269 13.1762 53.0153 13.8926 52.0302 14.7881C51.0452 15.6837 50.1496 16.9374 49.6123 18.3702C48.9855 19.8031 48.7168 21.5941 48.7168 23.6538V24.2807C48.7168 26.4299 48.9855 28.221 49.6123 29.7434C50.2392 31.2657 51.0452 32.4299 52.0302 33.415C53.0153 34.4001 54.269 35.1165 55.6123 35.5643C56.9556 36.012 58.3884 36.1911 60.0004 36.1911C61.6123 36.1911 62.9556 36.012 64.3884 35.5643C65.7317 35.1165 66.9855 34.4001 67.9705 33.415C68.9556 32.4299 69.8511 31.2657 70.3885 29.7434C71.0153 28.221 71.284 26.4299 71.284 24.2807ZM65.1049 24.2807C65.1049 25.624 64.9258 26.7881 64.6571 27.6836C64.3884 28.5792 64.0302 29.2956 63.4929 29.8329C63.0452 30.3702 62.5079 30.7284 61.881 30.9075C61.2541 31.0866 60.6273 31.2657 60.0004 31.2657C59.3735 31.2657 58.6571 31.1762 58.1198 30.9075C57.4929 30.7284 56.9556 30.3702 56.5079 29.8329C56.0601 29.2956 55.7019 28.5792 55.3437 27.6836C55.075 26.7881 54.8959 25.7135 54.8959 24.2807V23.6538C54.8959 22.4001 55.075 21.3254 55.3437 20.4299C55.6123 19.5344 55.9705 18.9075 56.5079 18.3702C56.9556 17.8329 57.4929 17.5643 58.1198 17.2956C58.7466 17.1165 59.3735 17.0269 60.0004 17.0269C60.6273 17.0269 61.3437 17.1165 61.881 17.2956C62.5079 17.4747 63.0452 17.8329 63.4929 18.3702C63.9407 18.9075 64.2989 19.5344 64.6571 20.4299C64.9258 21.3254 65.1049 22.3105 65.1049 23.6538V24.2807Z" fill="white"/>
<path d="M72.8965 17.6539H80.0607V35.9226H85.9711V17.6539H93.1353V12.7285H72.8965V17.6539Z" fill="white"/>
<path d="M126.539 27.9524H128.957L133.434 35.9226H140.061L134.688 27.3255C136.3 26.7882 137.464 25.8927 138.181 24.7285C138.987 23.5643 139.345 22.1315 139.345 20.43C139.345 18.0121 138.628 16.1315 137.106 14.7882C135.584 13.3554 133.434 12.7285 130.569 12.7285H120.449V35.9226H126.449V27.9524H126.539ZM126.539 17.6539H129.315C130.927 17.6539 132.001 17.9225 132.628 18.3703C133.255 18.8181 133.524 19.5345 133.524 20.5196C133.524 21.5046 133.255 22.2211 132.628 22.6688C132.001 23.1166 130.927 23.3852 129.315 23.3852H126.539V17.6539Z" fill="white"/>
<path d="M166.836 27.2359H171.134C171.134 27.9523 170.955 28.5792 170.686 29.0269C170.418 29.5642 170.06 29.9224 169.522 30.2807C169.074 30.6389 168.537 30.818 167.91 30.9971C167.283 31.1762 166.746 31.2657 166.119 31.2657C165.403 31.2657 164.686 31.1762 164.06 30.9075C163.433 30.6389 162.895 30.2807 162.448 29.6538C162 29.1165 161.642 28.4001 161.373 27.5045C161.104 26.609 161.015 25.5344 161.015 24.3702V23.7434C161.015 22.4896 161.104 21.5045 161.373 20.609C161.642 19.8031 161.91 19.0866 162.358 18.5493C162.806 18.012 163.343 17.6538 163.88 17.4747C164.507 17.2956 165.134 17.1165 165.851 17.1165C166.298 17.1165 166.657 17.1165 167.104 17.206C167.552 17.2956 167.91 17.4747 168.268 17.6538C168.627 17.9225 168.985 18.1911 169.254 18.6389C169.522 18.9971 169.791 19.5344 169.97 20.1613H176.239C176.06 18.7284 175.701 17.5642 175.074 16.4896C174.448 15.5045 173.731 14.609 172.836 13.9822C171.94 13.3553 170.866 12.818 169.701 12.5493C168.537 12.2807 167.283 12.1016 165.94 12.1016C164.418 12.1016 162.985 12.3702 161.642 12.818C160.298 13.2657 159.134 13.9822 158.06 14.8777C157.074 15.7732 156.268 17.0269 155.642 18.4598C155.015 19.8926 154.746 21.6836 154.746 23.6538V24.2807C154.746 26.3404 155.015 28.221 155.642 29.6538C156.179 31.1762 156.985 32.4299 158.06 33.3255C159.045 34.3105 160.298 35.0269 161.642 35.4747C162.985 35.9225 164.507 36.1016 166.119 36.1016C167.642 36.1016 169.074 35.9225 170.418 35.4747C171.671 35.0269 172.836 34.4001 173.821 33.5045C174.806 32.609 175.522 31.4448 176.06 30.012C176.597 28.5792 176.866 26.8777 176.866 24.9075V23.3851H166.925V27.2359H166.836Z" fill="white"/>
<path d="M198.985 24.5498C199.791 23.3856 200.149 21.9528 200.149 20.2513C200.149 17.8334 199.433 15.9528 197.911 14.6095C196.388 13.1767 194.239 12.5498 191.373 12.5498H181.254V35.7438H187.254V27.7737H189.672L194.149 35.7438H200.776L195.403 27.1468C197.015 26.6095 198.179 25.714 198.985 24.5498ZM193.343 22.4901C192.717 22.9379 191.642 23.2065 190.12 23.2065H187.343V17.4752H190.12C191.732 17.4752 192.806 17.7438 193.343 18.1916C193.97 18.6394 194.239 19.3558 194.239 20.3408C194.239 21.2364 193.881 21.9528 193.343 22.4901Z" fill="white"/>
<path d="M223.701 14.878C222.716 13.9825 221.462 13.266 220.119 12.8183C218.776 12.3705 217.253 12.1914 215.731 12.1914C214.208 12.1914 212.776 12.3705 211.343 12.8183C210 13.266 208.746 13.9825 207.761 14.878C206.776 15.7735 205.88 17.0272 205.343 18.4601C204.716 19.8929 204.447 21.6839 204.447 23.7436V24.3705C204.447 26.5198 204.716 28.3108 205.343 29.8332C205.97 31.3556 206.776 32.5198 207.761 33.5048C208.746 34.4899 210 35.2063 211.343 35.6541C212.686 36.1018 214.208 36.281 215.731 36.281C217.253 36.281 218.686 36.1018 220.119 35.6541C221.462 35.2063 222.716 34.4899 223.701 33.5048C224.686 32.5198 225.582 31.3556 226.119 29.8332C226.746 28.3108 227.014 26.5198 227.014 24.3705V23.7436C227.014 21.6839 226.746 19.9825 226.119 18.4601C225.492 16.9377 224.686 15.7735 223.701 14.878ZM220.835 24.281C220.835 25.6242 220.656 26.7884 220.388 27.6839C220.119 28.5795 219.761 29.2959 219.223 29.8332C218.776 30.3705 218.238 30.7287 217.611 30.9078C216.985 31.0869 216.358 31.266 215.731 31.266C215.104 31.266 214.388 31.1765 213.85 30.9078C213.223 30.7287 212.686 30.3705 212.238 29.8332C211.791 29.2959 211.432 28.5795 211.074 27.6839C210.805 26.7884 210.626 25.7138 210.626 24.281V23.6541C210.626 22.4004 210.805 21.3257 211.074 20.4302C211.343 19.5347 211.701 18.9078 212.238 18.3705C212.686 17.8332 213.223 17.5645 213.85 17.2959C214.477 17.1168 215.104 17.0272 215.731 17.0272C216.358 17.0272 217.074 17.1168 217.611 17.2959C218.238 17.475 218.776 17.8332 219.223 18.3705C219.671 18.9078 220.029 19.5347 220.388 20.4302C220.656 21.3257 220.835 22.3108 220.835 23.6541V24.281Z" fill="white"/>
<path d="M245.911 25.8035C245.911 27.5946 245.642 28.9379 245.015 29.8334C244.388 30.7289 243.314 31.1767 241.791 31.1767C240.269 31.1767 239.194 30.7289 238.567 29.8334C237.941 28.9379 237.672 27.5946 237.672 25.8035V12.5498H231.672V26.52C231.672 28.1319 231.941 29.5647 232.388 30.7289C232.836 31.9826 233.552 32.9677 234.448 33.7737C235.343 34.5797 236.418 35.2065 237.672 35.5647C238.926 36.0125 240.358 36.1916 241.881 36.1916C243.493 36.1916 244.836 36.0125 246.09 35.5647C247.343 35.117 248.418 34.5797 249.314 33.7737C250.209 32.9677 250.836 31.9826 251.284 30.7289C251.732 29.4752 252 28.1319 252 26.52V12.5498H246V25.8035H245.911Z" fill="white"/>
<path d="M266.508 12.5498H257.016V35.7438H263.016V28.4005H266.508C269.732 28.4005 272.15 27.6841 273.672 26.2513C275.195 24.8185 276.001 22.9379 276.001 20.4304C276.001 17.9229 275.195 16.0423 273.672 14.6095C272.15 13.2662 269.732 12.5498 266.508 12.5498ZM269.016 22.7588C268.389 23.2961 267.314 23.5647 265.792 23.5647H262.926V17.4752H265.792C267.314 17.4752 268.389 17.7438 269.016 18.2811C269.642 18.8185 269.911 19.5349 269.911 20.5199C270.001 21.505 269.642 22.2214 269.016 22.7588Z" fill="white"/>
<path d="M41.553 12.6387H40.568L32.3292 27.2357L23.9112 12.7282H22.9262L17.6426 36.0118H23.2844L25.6127 25.4446L31.8814 35.9223H32.7769L38.956 25.4446L41.3739 35.9223H47.0157L41.553 12.6387Z" fill="white"/>
<path d="M163.613 8.43105H162.091V7.62509C161.643 8.07285 161.195 8.3415 160.927 8.43105C160.658 8.52061 160.3 8.61017 159.941 8.61017C159.404 8.61017 158.956 8.43106 158.688 8.07285C158.33 7.71464 158.15 7.26688 158.15 6.72957C158.15 6.1027 158.419 5.56539 158.867 5.20718C159.404 4.84897 160.479 4.66987 162.091 4.58032V4.4012C162.091 4.04299 162.001 3.77434 161.732 3.59524C161.464 3.41613 161.016 3.32658 160.479 3.32658C160.031 3.32658 159.494 3.50568 158.777 3.77434H158.688V2.52061C159.494 2.34151 160.21 2.25195 160.837 2.25195C161.822 2.25195 162.538 2.43106 162.986 2.69971C163.434 3.05792 163.613 3.50568 163.613 4.2221V8.43105ZM162.091 6.99823V5.47584C161.016 5.56539 160.389 5.65494 160.121 5.83404C159.852 6.01315 159.762 6.28181 159.762 6.55046C159.762 6.90867 159.852 7.08778 160.031 7.26688C160.21 7.35644 160.479 7.44599 160.927 7.44599C161.285 7.53554 161.643 7.35643 162.091 6.99823Z" fill="white"/>
<path d="M171.494 8.43095V2.52051H174.718C175.524 2.52051 176.061 2.61005 176.33 2.87871C176.599 3.14737 176.778 3.41603 176.778 3.86379C176.778 4.40111 176.509 4.84886 175.972 5.11752V5.20708C176.688 5.38618 177.046 5.92349 177.046 6.6399C177.046 7.17722 176.867 7.62499 176.509 7.89364C176.151 8.25185 175.614 8.43095 174.897 8.43095H171.494ZM173.106 3.50557V4.93842H174.27C174.897 4.93842 175.166 4.66976 175.166 4.22199C175.166 3.95334 175.076 3.77424 174.987 3.68469C174.808 3.59514 174.628 3.50557 174.27 3.50557H173.106ZM173.106 5.83394V7.44588H174.539C174.808 7.44588 175.076 7.35633 175.255 7.26678C175.434 7.08768 175.524 6.90857 175.524 6.72946C175.524 6.19215 175.166 5.9235 174.539 5.9235H173.106V5.83394Z" fill="white"/>
<path d="M189.314 3.59485H187.344V8.43066H185.732V3.59485H183.762V2.43066H189.314V3.59485Z" fill="white"/>
<path d="M198.986 8.60948C198.001 8.60948 197.285 8.34081 196.747 7.8035C196.21 7.26619 195.941 6.46022 195.941 5.47515C195.941 4.49007 196.21 3.6841 196.747 3.14679C197.285 2.60947 198.001 2.34082 198.986 2.34082C199.971 2.34082 200.688 2.60947 201.225 3.14679C201.762 3.6841 202.031 4.49007 202.031 5.47515C202.031 6.46022 201.762 7.26619 201.225 7.8035C200.688 8.34081 199.971 8.60948 198.986 8.60948ZM198.986 3.41544C198.091 3.41544 197.553 4.13187 197.553 5.47515C197.553 6.81843 198.001 7.53484 198.986 7.53484C199.882 7.53484 200.329 6.81843 200.329 5.47515C200.419 4.13187 199.882 3.41544 198.986 3.41544Z" fill="white"/>
<path d="M214.21 8.16172C213.583 8.43037 212.956 8.60948 212.419 8.60948C211.344 8.60948 210.538 8.34081 210.001 7.8035C209.374 7.26619 209.105 6.46022 209.105 5.47515C209.105 4.49007 209.374 3.6841 210.001 3.14679C210.628 2.60947 211.344 2.34082 212.329 2.34082C212.956 2.34082 213.583 2.51992 214.21 2.78858V4.22141H214.12C213.583 3.6841 212.956 3.41544 212.419 3.41544C211.882 3.41544 211.523 3.59454 211.165 3.95275C210.897 4.31096 210.717 4.84828 210.717 5.47515C210.717 6.10201 210.897 6.63932 211.165 6.90798C211.434 7.26619 211.882 7.4453 212.419 7.4453C212.956 7.4453 213.583 7.17663 214.12 6.63932H214.21V8.16172Z" fill="white"/>
<path d="M226.927 5.74449H222.718C222.808 6.90866 223.434 7.53553 224.778 7.53553C225.405 7.53553 226.121 7.26688 226.837 6.81912H226.927V8.16241C226.121 8.43106 225.405 8.61017 224.688 8.61017C223.614 8.61017 222.718 8.3415 222.181 7.80419C221.554 7.26688 221.285 6.55047 221.285 5.47584C221.285 4.49076 221.554 3.68479 222.091 3.14748C222.628 2.61016 223.434 2.25195 224.419 2.25195C226.211 2.25195 227.106 3.23703 227.106 5.11762V5.74449H226.927ZM225.405 4.84896C225.405 3.86389 224.957 3.32658 224.151 3.32658C223.255 3.32658 222.808 3.86389 222.718 4.84896H225.405Z" fill="white"/>
<path d="M235.971 7.9826V10.5796H234.359V2.51992H235.971V3.32589C236.419 2.96768 236.777 2.69903 237.135 2.51992C237.404 2.43037 237.762 2.34082 238.031 2.34082C238.747 2.34082 239.285 2.60947 239.643 3.14679C240.001 3.6841 240.18 4.40052 240.18 5.38559C240.18 6.28111 239.912 7.08708 239.464 7.6244C239.016 8.25126 238.389 8.51992 237.673 8.51992C237.135 8.51992 236.598 8.34081 235.971 7.9826ZM235.971 3.95275V7.26619C236.24 7.35575 236.598 7.4453 236.956 7.4453C238.031 7.4453 238.568 6.81843 238.568 5.47515C238.568 4.22142 238.121 3.59455 237.225 3.59455C236.867 3.50499 236.419 3.68409 235.971 3.95275Z" fill="white"/>
<path d="M247.703 8.43095V2.52051H250.927C251.733 2.52051 252.27 2.61005 252.539 2.87871C252.808 3.14737 252.987 3.41603 252.987 3.86379C252.987 4.40111 252.718 4.84886 252.181 5.11752V5.20708C252.897 5.38618 253.255 5.92349 253.255 6.6399C253.255 7.17722 253.076 7.62499 252.718 7.89364C252.36 8.25185 251.823 8.43095 251.106 8.43095H247.703ZM249.315 3.50557V4.93842H250.479C251.106 4.93842 251.375 4.66976 251.375 4.22199C251.375 3.95334 251.285 3.77424 251.196 3.68469C251.017 3.59514 250.837 3.50557 250.479 3.50557H249.315ZM249.315 5.83394V7.44588H250.748C251.017 7.44588 251.285 7.35633 251.464 7.26678C251.643 7.08768 251.733 6.90857 251.733 6.72946C251.733 6.19215 251.375 5.9235 250.748 5.9235H249.315V5.83394Z" fill="white"/>
<path d="M262.479 1.71408H260.777V0.28125H262.479V1.71408ZM262.389 8.4305H260.777V2.52006H262.389V8.4305Z" fill="white"/>
<path d="M275.017 8.16172C274.39 8.43037 273.763 8.60948 273.226 8.60948C272.151 8.60948 271.345 8.34081 270.808 7.8035C270.181 7.26619 269.912 6.46022 269.912 5.47515C269.912 4.49007 270.181 3.6841 270.808 3.14679C271.434 2.60947 272.151 2.34082 273.136 2.34082C273.763 2.34082 274.39 2.51992 275.017 2.78858V4.22141H274.927C274.39 3.6841 273.763 3.41544 273.226 3.41544C272.688 3.41544 272.33 3.59454 271.972 3.95275C271.703 4.31096 271.524 4.84828 271.524 5.47515C271.524 6.10201 271.703 6.63932 271.972 6.90798C272.24 7.26619 272.688 7.4453 273.226 7.4453C273.763 7.4453 274.39 7.17663 274.927 6.63932H275.017V8.16172Z" fill="white"/>
<path d="M8.86523 35.923H14.507L19.0742 15.6842L15.7608 9.86328H14.8652L8.86523 35.923Z" fill="url(#paint0_linear_8_715)"/>
<path d="M0.0898438 35.923H5.73163L10.3884 15.6842L6.98537 9.86328H6.08985L0.0898438 35.923Z" fill="url(#paint1_linear_8_715)"/>
<defs>
<linearGradient id="paint0_linear_8_715" x1="8.79655" y1="22.9128" x2="19.1052" y2="22.9128" gradientUnits="userSpaceOnUse">
<stop stop-color="#5E2885"/>
<stop offset="0.0740974" stop-color="#6A378D"/>
<stop offset="0.1828" stop-color="#754696"/>
<stop offset="0.3102" stop-color="#7B4F9B"/>
<stop offset="0.4998" stop-color="#7D529D"/>
<stop offset="1" stop-color="#A682BA"/>
</linearGradient>
<linearGradient id="paint1_linear_8_715" x1="0.0378139" y1="22.9128" x2="10.3464" y2="22.9128" gradientUnits="userSpaceOnUse">
<stop stop-color="#E5332A"/>
<stop offset="1" stop-color="#F29100"/>
</linearGradient>
</defs>
</svg>
