<svg width="21" height="18" viewBox="0 0 21 18" fill="none" xmlns="http://www.w3.org/2000/svg">
<path d="M1 2.87424C1 2.63849 1.09365 2.4124 1.26035 2.2457C1.42705 2.079 1.65314 1.98535 1.88889 1.98535H7.22222C7.45797 1.98535 7.68406 2.079 7.85076 2.2457C8.01746 2.4124 8.11111 2.63849 8.11111 2.87424C8.11111 3.10999 8.01746 3.33608 7.85076 3.50278C7.68406 3.66948 7.45797 3.76313 7.22222 3.76313H1.88889C1.65314 3.76313 1.42705 3.66948 1.26035 3.50278C1.09365 3.33608 1 3.10999 1 2.87424Z" fill="white" stroke="#0A1630" stroke-width="0.5"/>
<path d="M1.88889 5.54053C1.65314 5.54053 1.42705 5.63418 1.26035 5.80088C1.09365 5.96758 1 6.19367 1 6.42942C1 6.66516 1.09365 6.89126 1.26035 7.05796C1.42705 7.22466 1.65314 7.31831 1.88889 7.31831H5.44444C5.68019 7.31831 5.90629 7.22466 6.07298 7.05796C6.23968 6.89126 6.33333 6.66516 6.33333 6.42942C6.33333 6.19367 6.23968 5.96758 6.07298 5.80088C5.90629 5.63418 5.68019 5.54053 5.44444 5.54053H1.88889Z" fill="white" stroke="#0A1630" stroke-width="0.5"/>
<path d="M10.3796 11.6686L6.10933 9.5353C6.89155 9.31664 7.64356 9.02508 8.35467 8.66775L10.7778 9.88019L18.7778 5.88019V4.65175C18.7778 4.18025 18.5905 3.72807 18.2571 3.39467C17.9237 3.06127 17.4715 2.87397 17 2.87397H14.024C14.296 2.30508 14.5236 1.70952 14.7067 1.09619H17C17.943 1.09619 18.8474 1.47079 19.5142 2.13759C20.181 2.80439 20.5556 3.70875 20.5556 4.65175V13.5406C20.5556 14.4836 20.181 15.388 19.5142 16.0548C18.8474 16.7216 17.943 17.0962 17 17.0962H4.55556C3.61256 17.0962 2.70819 16.7216 2.0414 16.0548C1.3746 15.388 1 14.4836 1 13.5406V9.86064C1.58133 9.94241 2.17333 9.98508 2.77778 9.98508V13.5406C2.77778 14.0121 2.96508 14.4643 3.29848 14.7977C3.63188 15.1311 4.08406 15.3184 4.55556 15.3184H17C17.4715 15.3184 17.9237 15.1311 18.2571 14.7977C18.5905 14.4643 18.7778 14.0121 18.7778 13.5406V7.86775L11.176 11.6686C11.0524 11.7306 10.916 11.7628 10.7778 11.7628C10.6395 11.7628 10.5032 11.7306 10.3796 11.6686V11.6686Z" fill="white" stroke="#0A1630" stroke-width="0.5"/>
</svg>
