<svg width="20" height="20" viewBox="0 0 20 20" fill="none" xmlns="http://www.w3.org/2000/svg">
<g opacity="0.5">
<mask id="path-1-inside-1_8_793" fill="white">
<path fill-rule="evenodd" clip-rule="evenodd" d="M3.4501 9.0499L11.1 1.4L9.7 0L0 9.7L9.7 19.4L11.1 18L4.1499 11.0499H19.0508V9.0499H3.4501Z"/>
</mask>
<path fill-rule="evenodd" clip-rule="evenodd" d="M3.4501 9.0499L11.1 1.4L9.7 0L0 9.7L9.7 19.4L11.1 18L4.1499 11.0499H19.0508V9.0499H3.4501Z" fill="white"/>
<path d="M11.1 1.4L11.4536 1.75355L11.8071 1.4L11.4536 1.04645L11.1 1.4ZM3.4501 9.0499L3.09654 8.69635L2.24299 9.5499H3.4501V9.0499ZM9.7 0L10.0536 -0.353553L9.7 -0.707107L9.34645 -0.353553L9.7 0ZM0 9.7L-0.353553 9.34645L-0.707107 9.7L-0.353553 10.0536L0 9.7ZM9.7 19.4L9.34645 19.7536L9.7 20.1071L10.0536 19.7536L9.7 19.4ZM11.1 18L11.4536 18.3536L11.8071 18L11.4536 17.6464L11.1 18ZM4.1499 11.0499V10.5499H2.94279L3.79635 11.4035L4.1499 11.0499ZM19.0508 11.0499V11.5499H19.5508V11.0499H19.0508ZM19.0508 9.0499H19.5508V8.5499H19.0508V9.0499ZM10.7464 1.04645L3.09654 8.69635L3.80365 9.40346L11.4536 1.75355L10.7464 1.04645ZM9.34645 0.353553L10.7464 1.75355L11.4536 1.04645L10.0536 -0.353553L9.34645 0.353553ZM0.353553 10.0536L10.0536 0.353553L9.34645 -0.353553L-0.353553 9.34645L0.353553 10.0536ZM10.0536 19.0464L0.353553 9.34645L-0.353553 10.0536L9.34645 19.7536L10.0536 19.0464ZM10.7464 17.6464L9.34645 19.0464L10.0536 19.7536L11.4536 18.3536L10.7464 17.6464ZM3.79635 11.4035L10.7464 18.3536L11.4536 17.6464L4.50346 10.6964L3.79635 11.4035ZM19.0508 10.5499H4.1499V11.5499H19.0508V10.5499ZM18.5508 9.0499V11.0499H19.5508V9.0499H18.5508ZM3.4501 9.5499H19.0508V8.5499H3.4501V9.5499Z" fill="#17212B" mask="url(#path-1-inside-1_8_793)"/>
</g>
</svg>
