<svg width="169" height="84" viewBox="0 0 169 84" fill="none" xmlns="http://www.w3.org/2000/svg">
<path d="M31.3461 81.0472H29.462V80.1107C28.891 80.6215 28.4057 80.9053 28.0346 81.0472C27.6635 81.1607 27.2923 81.2458 26.8641 81.2458C26.2361 81.2458 25.7223 81.0472 25.294 80.6499C24.8944 80.2526 24.666 79.7134 24.666 79.0891C24.666 78.2945 24.98 77.6701 25.5795 77.2445C26.179 76.8188 27.4636 76.5634 29.4334 76.4783V76.2796C29.4334 75.8256 29.2907 75.5134 28.9766 75.3148C28.6626 75.1161 28.1488 75.0026 27.4351 75.0026C26.9498 75.0026 26.2361 75.2013 25.3511 75.5702H25.294V74.0661C26.2646 73.8391 27.1211 73.7256 27.8919 73.7256C29.0908 73.7256 29.9758 73.9242 30.5182 74.3215C31.0606 74.7188 31.3175 75.3148 31.3175 76.1661V81.0472H31.3461ZM29.462 79.2877V77.4999C28.2059 77.6134 27.4351 77.7553 27.1211 77.9823C26.8071 78.2094 26.6358 78.4931 26.6358 78.8904C26.6358 79.2877 26.75 79.5715 26.9783 79.7418C27.2067 79.9121 27.5493 79.9688 28.006 79.9688C28.4913 79.9688 28.9766 79.7418 29.462 79.2877Z" fill="white"/>
<path d="M40.8828 81.0473V73.896H44.7367C45.7073 73.896 46.3639 74.0379 46.7065 74.3217C47.049 74.6055 47.2203 75.0027 47.2203 75.5136C47.2203 76.1663 46.9063 76.7055 46.2497 77.046V77.1027C47.1347 77.3581 47.5914 77.9257 47.5914 78.8338C47.5914 79.4582 47.363 79.9974 46.9063 80.3947C46.4495 80.792 45.793 80.9906 44.9365 80.9906H40.8828V81.0473ZM42.7669 75.1162V76.8474H44.1658C44.908 76.8474 45.2791 76.5636 45.2791 75.996C45.2791 75.6838 45.1935 75.4568 45.0222 75.3149C44.8509 75.173 44.5369 75.1162 44.1372 75.1162H42.7669ZM42.7669 77.8973V79.8271H44.4512C44.7938 79.8271 45.0793 79.7419 45.2791 79.5717C45.4789 79.4014 45.5931 79.1744 45.5931 78.8622C45.5931 78.2095 45.1934 77.869 44.4227 77.869H42.7669V77.8973Z" fill="white"/>
<path d="M62.3195 75.2581H59.9501V81.0473H58.0374V75.2581H55.668V73.896H62.3195V75.2581Z" fill="white"/>
<path d="M74.0537 81.2742C72.8833 81.2742 71.9697 80.9337 71.3417 80.281C70.6851 79.5999 70.3711 78.6918 70.3711 77.4999C70.3711 76.308 70.6851 75.3715 71.3417 74.7188C71.9983 74.0377 72.8833 73.7256 74.0537 73.7256C75.2241 73.7256 76.1091 74.0661 76.7657 74.7188C77.4223 75.3999 77.7363 76.308 77.7363 77.4999C77.7363 78.6918 77.4223 79.6283 76.7657 80.281C76.1091 80.9337 75.2241 81.2742 74.0537 81.2742ZM74.0537 75.0026C72.9118 75.0026 72.3694 75.8256 72.3694 77.4999C72.3694 79.1175 72.9403 79.9404 74.0822 79.9404C75.1956 79.9404 75.738 79.1175 75.738 77.4999C75.738 75.8256 75.167 75.0026 74.0537 75.0026Z" fill="white"/>
<path d="M92.4064 80.6798C91.6071 81.0488 90.8934 81.219 90.2368 81.219C88.9808 81.219 88.0102 80.9069 87.2965 80.2542C86.5828 79.6015 86.2402 78.6933 86.2402 77.5014C86.2402 76.3095 86.5828 75.3731 87.2965 74.692C88.0102 74.0393 88.9522 73.6987 90.1512 73.6987C90.922 73.6987 91.6642 73.869 92.4064 74.2379V75.969H92.3208C91.6071 75.3447 90.922 75.0325 90.2368 75.0325C89.6088 75.0325 89.1235 75.2595 88.7524 75.6852C88.4098 76.1109 88.2385 76.7068 88.2385 77.4731C88.2385 78.2393 88.4098 78.8352 88.7809 79.2325C89.1235 79.6298 89.6374 79.8569 90.294 79.8569C90.9791 79.8569 91.6642 79.5447 92.3493 78.9204H92.435V80.6798H92.4064Z" fill="white"/>
<path d="M107.795 77.7569H102.713C102.799 79.1758 103.598 79.9136 105.169 79.9136C105.968 79.9136 106.796 79.6298 107.624 79.0339H107.681V80.6798C106.71 81.0488 105.797 81.2474 104.94 81.2474C103.598 81.2474 102.571 80.9352 101.857 80.2825C101.143 79.6582 100.801 78.7217 100.801 77.5298C100.801 76.3379 101.143 75.4015 101.8 74.7204C102.457 74.0393 103.399 73.6987 104.569 73.6987C106.739 73.6987 107.795 74.8339 107.795 77.1325V77.7569ZM105.911 76.7069C105.882 75.4866 105.397 74.8623 104.398 74.8623C103.341 74.8623 102.799 75.4866 102.713 76.7069H105.911Z" fill="white"/>
<path d="M118.727 80.5379V83.6028H116.814V73.8974H118.727V74.8623C119.27 74.4082 119.726 74.096 120.069 73.9258C120.411 73.7839 120.783 73.6987 121.182 73.6987C122.01 73.6987 122.667 74.0109 123.123 74.6636C123.58 75.3163 123.809 76.196 123.809 77.3595C123.809 78.4947 123.523 79.4028 122.924 80.1123C122.324 80.8217 121.61 81.1623 120.725 81.1623C120.155 81.1623 119.469 80.9352 118.727 80.5379ZM118.727 75.6568V79.6014C119.07 79.7433 119.441 79.8001 119.898 79.8001C121.211 79.8001 121.867 79.0055 121.867 77.4163C121.867 75.9123 121.325 75.1461 120.212 75.1461C119.755 75.1744 119.27 75.3447 118.727 75.6568Z" fill="white"/>
<path d="M132.889 81.0473V73.896H136.743C137.713 73.896 138.37 74.0379 138.712 74.3217C139.055 74.6055 139.226 75.0027 139.226 75.5136C139.226 76.1663 138.912 76.7055 138.256 77.046V77.1027C139.141 77.3581 139.597 77.9257 139.597 78.8338C139.597 79.4582 139.369 79.9974 138.912 80.3947C138.455 80.792 137.799 80.9906 136.942 80.9906H132.889V81.0473ZM134.773 75.1162V76.8474H136.172C136.914 76.8474 137.285 76.5636 137.285 75.996C137.285 75.6838 137.199 75.4568 137.028 75.3149C136.857 75.173 136.543 75.1162 136.143 75.1162H134.773ZM134.773 77.8973V79.8271H136.457C136.8 79.8271 137.085 79.7419 137.285 79.5717C137.485 79.4014 137.599 79.1744 137.599 78.8622C137.599 78.2095 137.199 77.869 136.429 77.869H134.773V77.8973Z" fill="white"/>
<path d="M150.644 73.0166H148.617V71.3423H150.644V73.0166ZM150.587 81.0477H148.674V73.8963H150.587V81.0477Z" fill="white"/>
<path d="M165.803 80.6798C165.004 81.0488 164.29 81.219 163.633 81.219C162.377 81.219 161.407 80.9069 160.693 80.2542C159.979 79.6015 159.637 78.6933 159.637 77.5014C159.637 76.3095 159.979 75.3731 160.693 74.692C161.407 74.0393 162.349 73.6987 163.548 73.6987C164.318 73.6987 165.061 73.869 165.803 74.2379V75.969H165.717C165.004 75.3447 164.318 75.0325 163.633 75.0325C163.005 75.0325 162.52 75.2595 162.149 75.6852C161.806 76.1109 161.635 76.7069 161.635 77.4731C161.635 78.2393 161.806 78.8352 162.177 79.2325C162.52 79.6298 163.034 79.8569 163.69 79.8569C164.376 79.8569 165.061 79.5447 165.746 78.9204H165.831V80.6798H165.803Z" fill="white"/>
<path d="M137.395 6.3558C136.167 5.24904 134.711 4.42607 133.084 3.88688C131.428 3.34769 129.687 3.09229 127.86 3.09229C126.033 3.09229 124.292 3.34769 122.636 3.88688C120.98 4.42607 119.553 5.22066 118.297 6.3558C117.069 7.46256 116.098 8.88147 115.356 10.6409C114.643 12.372 114.271 14.472 114.271 16.9125V17.7072C114.271 20.2328 114.643 22.3896 115.356 24.1774C116.07 25.9653 117.041 27.4126 118.297 28.5761C119.524 29.7112 120.98 30.5625 122.636 31.1017C124.292 31.6409 126.033 31.8963 127.86 31.8963C129.687 31.8963 131.428 31.6409 133.084 31.1017C134.74 30.5625 136.167 29.7396 137.395 28.5761C138.622 27.4409 139.593 25.9653 140.335 24.1774C141.049 22.3896 141.42 20.2328 141.42 17.7072V16.9125C141.42 14.472 141.049 12.4004 140.335 10.6409C139.593 8.88147 138.622 7.46256 137.395 6.3558ZM133.969 17.6788C133.969 19.3247 133.798 20.6585 133.455 21.7085C133.113 22.7585 132.656 23.6099 132.114 24.2342C131.543 24.8585 130.915 25.2842 130.172 25.5396C129.43 25.795 128.659 25.9085 127.86 25.9085C127.061 25.9085 126.29 25.795 125.548 25.5396C124.805 25.2842 124.149 24.8585 123.606 24.2342C123.035 23.6099 122.607 22.7869 122.265 21.7085C121.922 20.6585 121.751 19.2963 121.751 17.6788V16.8842C121.751 15.3517 121.922 14.0747 122.265 13.0531C122.607 12.0315 123.064 11.2369 123.606 10.6409C124.177 10.045 124.805 9.6193 125.548 9.39227C126.29 9.16525 127.061 9.02336 127.86 9.02336C128.659 9.02336 129.43 9.13687 130.172 9.39227C130.915 9.6193 131.571 10.045 132.114 10.6409C132.684 11.2369 133.113 12.0315 133.455 13.0531C133.798 14.0747 133.969 15.3517 133.969 16.8842V17.6788Z" fill="white"/>
<path d="M85.8406 17.6788V16.8842C85.8406 14.4437 85.4695 12.3721 84.7558 10.6126C84.0422 8.88154 83.0715 7.43423 81.8155 6.32748C80.5879 5.22072 79.132 4.39775 77.5048 3.85856C75.8491 3.31937 74.1077 3.06396 72.2807 3.06396C70.4536 3.06396 68.7123 3.31937 67.0565 3.85856C65.4008 4.39775 63.9734 5.19234 62.7459 6.32748C61.5183 7.43423 60.5477 8.85316 59.8055 10.6126C59.0918 12.3437 58.7207 14.4437 58.7207 16.8842V17.6788C58.7207 20.2045 59.0918 22.3613 59.8055 24.1491C60.5192 25.9369 61.4898 27.3842 62.7459 28.5477C63.9734 29.6829 65.4293 30.5342 67.0565 31.0734C68.7123 31.6126 70.4536 31.868 72.2807 31.868C74.1077 31.868 75.8491 31.6126 77.5048 31.0734C79.1606 30.5342 80.5879 29.7113 81.8155 28.5477C83.043 27.4126 84.0136 25.9369 84.7558 24.1491C85.4981 22.3896 85.8406 20.2329 85.8406 17.6788ZM78.4469 17.6788C78.4469 19.3248 78.2756 20.6586 77.933 21.7086C77.5905 22.7586 77.1337 23.6099 76.5913 24.2342C76.0204 24.8586 75.3923 25.2842 74.6501 25.5396C73.9079 25.795 73.1371 25.9086 72.3378 25.9086C71.5384 25.9086 70.7677 25.795 70.0254 25.5396C69.2832 25.2842 68.6266 24.8586 68.0842 24.2342C67.5133 23.6099 67.0851 22.7869 66.7425 21.7086C66.3999 20.6586 66.2286 19.2964 66.2286 17.6788V16.8842C66.2286 15.3518 66.3999 14.0748 66.7425 13.0532C67.0851 12.0315 67.5418 11.2369 68.0842 10.641C68.6552 10.045 69.2832 9.61937 70.0254 9.39234C70.7677 9.16531 71.5384 9.02342 72.3378 9.02342C73.1371 9.02342 73.9079 9.13693 74.6501 9.39234C75.3923 9.61937 76.0489 10.045 76.5913 10.641C77.1622 11.2369 77.5905 12.0315 77.933 13.0532C78.2756 14.0748 78.4469 15.3518 78.4469 16.8842V17.6788Z" fill="white"/>
<path d="M87.7812 9.70436H96.374V31.5841H103.539V9.70436H112.104V3.8584H87.7812V9.70436Z" fill="white"/>
<path d="M152.183 22.0764H155.123L160.547 31.5832H168.512L162.06 21.3102C163.944 20.6575 165.372 19.6075 166.314 18.1886C167.256 16.7696 167.741 15.0669 167.741 13.1088C167.741 10.271 166.856 8.00072 165.058 6.3264C163.288 4.65207 160.662 3.8291 157.179 3.8291H145.018V31.5548H152.183V22.0764ZM152.183 9.70343H155.58C157.493 9.70343 158.806 9.98722 159.52 10.5548C160.233 11.1224 160.576 11.9737 160.576 13.1088C160.576 14.244 160.233 15.0953 159.52 15.6629C158.806 16.2305 157.493 16.5142 155.58 16.5142H152.183V9.70343Z" fill="white"/>
<path d="M105.88 41.1478C104.652 40.041 103.196 39.2181 101.569 38.6789C99.9136 38.1397 98.1722 37.8843 96.3451 37.8843C94.5181 37.8843 92.7767 38.1397 91.121 38.6789C89.4652 39.2181 88.0379 40.0127 86.8103 41.1478C85.5828 42.2545 84.6122 43.6735 83.87 45.4329C83.1563 47.164 82.7852 49.264 82.7852 51.7045V52.4991C82.7852 55.0248 83.1563 57.1816 83.87 58.9694C84.5837 60.7573 85.5542 62.2046 86.8103 63.3681C88.0379 64.5032 89.4938 65.3545 91.121 65.8937C92.7767 66.4329 94.5181 66.6883 96.3451 66.6883C98.1722 66.6883 99.9136 66.4329 101.569 65.8937C103.225 65.3545 104.652 64.5316 105.88 63.3681C107.107 62.2329 108.078 60.7573 108.82 58.9694C109.534 57.1816 109.905 55.0248 109.905 52.4991V51.7045C109.905 49.264 109.534 47.1924 108.82 45.4329C108.107 43.6735 107.107 42.2545 105.88 41.1478ZM102.483 52.4708C102.483 54.1167 102.312 55.4505 101.969 56.5005C101.626 57.5505 101.17 58.4018 100.627 59.0262C100.056 59.6505 99.4282 60.0762 98.686 60.3316C97.9438 60.587 97.173 60.7005 96.3737 60.7005C95.5743 60.7005 94.8036 60.587 94.0613 60.3316C93.3191 60.0762 92.6625 59.6505 92.1201 59.0262C91.5492 58.4018 91.121 57.5789 90.7784 56.5005C90.4358 55.4505 90.2645 54.0883 90.2645 52.4708V51.6762C90.2645 50.1437 90.4358 48.8667 90.7784 47.8451C91.121 46.8235 91.5777 46.0289 92.1201 45.4329C92.6911 44.837 93.3191 44.4113 94.0613 44.1843C94.8036 43.9572 95.5743 43.8154 96.3737 43.8154C97.173 43.8154 97.9438 43.9289 98.686 44.1843C99.4282 44.4113 100.085 44.837 100.627 45.4329C101.198 46.0289 101.626 46.8235 101.969 47.8451C102.312 48.8667 102.483 50.1437 102.483 51.6762V52.4708Z" fill="white"/>
<path d="M132.542 54.2589C132.542 56.3589 132.171 57.9765 131.458 59.0833C130.744 60.19 129.431 60.7292 127.547 60.7292C125.72 60.7292 124.435 60.19 123.693 59.0833C122.951 57.9765 122.579 56.359 122.579 54.2306V38.4238H115.414V55.0536C115.414 56.9833 115.7 58.686 116.27 60.1333C116.841 61.5806 117.641 62.8008 118.697 63.7657C119.753 64.7306 121.009 65.4684 122.522 65.9509C124.035 66.4333 125.691 66.6887 127.575 66.6887C129.459 66.6887 131.144 66.4333 132.657 65.9509C134.17 65.4684 135.426 64.7306 136.482 63.7657C137.538 62.8008 138.338 61.5806 138.88 60.1333C139.451 58.686 139.708 56.9833 139.708 55.0536V38.4238H132.542V54.2589Z" fill="white"/>
<path d="M165.914 40.9202C164.058 39.2459 161.203 38.3945 157.321 38.3945H145.959V66.1202H153.124V57.3229H157.321C161.203 57.3229 164.058 56.4715 165.914 54.7972C167.769 53.1229 168.683 50.7959 168.683 47.8445C168.683 44.9215 167.741 42.5945 165.914 40.9202ZM160.375 50.5688C159.633 51.1648 158.349 51.477 156.521 51.477H153.124V44.2688H156.521C158.349 44.2688 159.633 44.581 160.375 45.1769C161.118 45.7729 161.489 46.681 161.489 47.8729C161.489 49.0648 161.118 49.9729 160.375 50.5688Z" fill="white"/>
<path d="M31.7731 19.5517L38.9099 31.5841H40.48L47.5883 19.5517L50.3288 31.5841H57.5228L51.014 3.60303H49.5581L39.6807 20.8003L29.8604 3.71653L29.8033 3.60303H28.3474L21.8672 31.5841H29.0326L31.7731 19.5517Z" fill="white"/>
<path d="M37.0525 51.4207V55.9329H42.3052C42.2767 56.7843 42.0768 57.4937 41.7343 58.0897C41.3632 58.6856 40.9064 59.1681 40.364 59.5654C39.7931 59.9627 39.165 60.2464 38.4228 60.4451C37.7091 60.6437 36.9669 60.7289 36.2246 60.7289C35.3111 60.7289 34.4833 60.587 33.741 60.2748C32.9988 59.9627 32.3422 59.4802 31.7998 58.8275C31.2574 58.1748 30.8577 57.3235 30.5437 56.2735C30.2297 55.2235 30.087 53.9748 30.087 52.4991V51.7045C30.087 50.2289 30.2297 48.9802 30.5152 47.987C30.8007 46.9937 31.2003 46.1708 31.7142 45.5748C32.228 44.9789 32.8561 44.5248 33.5983 44.2694C34.312 44.014 35.1398 43.8721 35.9963 43.8721C36.4816 43.8721 36.9954 43.9289 37.4807 44.0424C37.966 44.1559 38.4513 44.3262 38.8795 44.6099C39.3077 44.8937 39.7074 45.2626 40.0785 45.7451C40.4211 46.2275 40.7066 46.8235 40.9064 47.5613H48.5571C48.3287 45.8586 47.8719 44.4113 47.1297 43.191C46.9584 42.9072 46.7871 42.6519 46.5873 42.3681C45.9593 41.5167 45.2456 40.7789 44.3892 40.1829C43.3044 39.4167 42.0197 38.8208 40.5924 38.4518C39.165 38.0829 37.6234 37.8843 35.9963 37.8843C34.1407 37.8843 32.3708 38.1681 30.7436 38.7073C29.0878 39.2464 27.6604 40.0694 26.4329 41.2045C26.0618 41.5451 25.6907 41.9424 25.3767 42.3397C24.6344 43.2478 24.0064 44.2694 23.5211 45.4613C22.8074 47.1924 22.4648 49.264 22.4648 51.6478V52.4424C22.4648 54.9397 22.8074 57.0964 23.5211 58.9126C24.2348 60.7005 25.1768 62.1762 26.4329 63.3397C27.6604 64.4748 29.1164 65.3262 30.8007 65.8653C32.4849 66.4045 34.312 66.66 36.2817 66.66C38.1658 66.66 39.9072 66.4045 41.4773 65.8937C43.0474 65.3829 44.4177 64.5883 45.5596 63.51C46.7015 62.4316 47.615 61.041 48.243 59.3383C48.8996 57.6356 49.2137 55.6208 49.2137 53.237V51.364H37.0525V51.4207Z" fill="white"/>
<path d="M72.0232 55.8756C73.9073 55.2229 75.3347 54.1729 76.2768 52.754C77.2188 51.3351 77.7041 49.6324 77.7041 47.6742C77.7041 44.8364 76.8192 42.5661 75.0207 40.8918C73.2507 39.2175 70.6244 38.3945 67.1416 38.3945H58.7773H54.9805V42.3391V66.1202H62.1459V56.6134H65.0862L70.5102 66.1202H78.4749L72.0232 55.8756ZM69.454 50.2283C68.7403 50.7959 67.4556 51.0797 65.543 51.0797H62.1459V44.2688H65.543C67.4556 44.2688 68.7688 44.5526 69.454 45.1202C70.1676 45.6878 70.5102 46.5391 70.5102 47.6742C70.5102 48.8094 70.1391 49.6607 69.454 50.2283Z" fill="white"/>
<path d="M23.8661 7.29213L19.8695 0.311035H18.4136L11.1055 31.584H18.2423L23.8661 7.29213Z" fill="url(#paint0_linear_8_513)"/>
<path d="M13.1024 7.29213L9.10582 0.311035H7.6499L0.341797 31.584H7.47862L13.1024 7.29213Z" fill="url(#paint1_linear_8_513)"/>
<defs>
<linearGradient id="paint0_linear_8_513" x1="11.0501" y1="15.9549" x2="23.8732" y2="15.9549" gradientUnits="userSpaceOnUse">
<stop stop-color="#702382"/>
<stop offset="0.0666125" stop-color="#6E3089"/>
<stop offset="0.1773" stop-color="#6C3F92"/>
<stop offset="0.3069" stop-color="#6A4896"/>
<stop offset="0.4998" stop-color="#6A4B98"/>
<stop offset="1" stop-color="#987BB6"/>
</linearGradient>
<linearGradient id="paint1_linear_8_513" x1="0.277879" y1="15.9549" x2="13.101" y2="15.9549" gradientUnits="userSpaceOnUse">
<stop stop-color="#E5332A"/>
<stop offset="1" stop-color="#F29100"/>
</linearGradient>
</defs>
</svg>
