<svg width="30" height="77" viewBox="0 0 30 77" fill="none" xmlns="http://www.w3.org/2000/svg">
<g filter="url(#filter0_d_13_819)">
<rect x="12.5" y="7.94922" width="4.7768" height="8.00485" rx="1.5" stroke="#C2C2C2"/>
<path d="M14.8145 45.4258C14.8145 45.1496 15.0383 44.9258 15.3145 44.9258C15.5906 44.9258 15.8145 45.1496 15.8145 45.4258L14.8145 45.4258ZM15.668 62.4795C15.4727 62.6748 15.1562 62.6748 14.9609 62.4795L11.7789 59.2976C11.5837 59.1023 11.5837 58.7857 11.7789 58.5905C11.9742 58.3952 12.2908 58.3952 12.486 58.5905L15.3145 61.4189L18.1429 58.5905C18.3381 58.3952 18.6547 58.3952 18.85 58.5905C19.0453 58.7857 19.0453 59.1023 18.85 59.2976L15.668 62.4795ZM15.8145 45.4258L15.8145 62.126L14.8145 62.126L14.8145 45.4258L15.8145 45.4258Z" fill="#C2C2C2"/>
<path d="M8 0.5H22C23.933 0.5 25.5 2.067 25.5 4V25C25.5 29.1421 22.1421 32.5 18 32.5H12C7.85786 32.5 4.5 29.1421 4.5 25V4C4.5 2.067 6.067 0.5 8 0.5Z" stroke="#C2C2C2"/>
</g>
<defs>
<filter id="filter0_d_13_819" x="0" y="0" width="30" height="76.626" filterUnits="userSpaceOnUse" color-interpolation-filters="sRGB">
<feFlood flood-opacity="0" result="BackgroundImageFix"/>
<feColorMatrix in="SourceAlpha" type="matrix" values="0 0 0 0 0 0 0 0 0 0 0 0 0 0 0 0 0 0 127 0" result="hardAlpha"/>
<feOffset dy="10"/>
<feGaussianBlur stdDeviation="2"/>
<feComposite in2="hardAlpha" operator="out"/>
<feColorMatrix type="matrix" values="0 0 0 0 0 0 0 0 0 0 0 0 0 0 0 0 0 0 0.25 0"/>
<feBlend mode="normal" in2="BackgroundImageFix" result="effect1_dropShadow_13_819"/>
<feBlend mode="normal" in="SourceGraphic" in2="effect1_dropShadow_13_819" result="shape"/>
</filter>
</defs>
</svg>
