<svg width="20" height="20" viewBox="0 0 20 20" fill="none" xmlns="http://www.w3.org/2000/svg">
<mask id="path-1-inside-1_8_796" fill="white">
<path fill-rule="evenodd" clip-rule="evenodd" d="M15.6007 9.0498L7.95078 1.3999L9.35078 -9.91821e-05L19.0508 9.6999L9.35078 19.3999L7.95078 17.9999L14.9009 11.0498H0V9.0498H15.6007Z"/>
</mask>
<path fill-rule="evenodd" clip-rule="evenodd" d="M15.6007 9.0498L7.95078 1.3999L9.35078 -9.91821e-05L19.0508 9.6999L9.35078 19.3999L7.95078 17.9999L14.9009 11.0498H0V9.0498H15.6007Z" fill="white"/>
<path d="M7.95078 1.4L7.59723 1.75355L7.24367 1.4L7.59723 1.04645L7.95078 1.4ZM15.6007 9.0499L15.9542 8.69635L16.8078 9.5499H15.6007V9.0499ZM9.35078 0L8.99723 -0.353553L9.35078 -0.707107L9.70434 -0.353553L9.35078 0ZM19.0508 9.7L19.4043 9.34645L19.7579 9.7L19.4043 10.0536L19.0508 9.7ZM9.35078 19.4L9.70434 19.7536L9.35078 20.1071L8.99723 19.7536L9.35078 19.4ZM7.95078 18L7.59723 18.3536L7.24367 18L7.59723 17.6464L7.95078 18ZM14.9009 11.0499V10.5499H16.108L15.2544 11.4035L14.9009 11.0499ZM0 11.0499V11.5499H-0.5V11.0499H0ZM0 9.0499H-0.5V8.5499H0V9.0499ZM8.30433 1.04645L15.9542 8.69635L15.2471 9.40346L7.59723 1.75355L8.30433 1.04645ZM9.70434 0.353553L8.30433 1.75355L7.59723 1.04645L8.99723 -0.353553L9.70434 0.353553ZM18.6972 10.0536L8.99723 0.353553L9.70434 -0.353553L19.4043 9.34645L18.6972 10.0536ZM8.99723 19.0464L18.6972 9.34645L19.4043 10.0536L9.70434 19.7536L8.99723 19.0464ZM8.30433 17.6464L9.70434 19.0464L8.99723 19.7536L7.59723 18.3536L8.30433 17.6464ZM15.2544 11.4035L8.30433 18.3536L7.59723 17.6464L14.5473 10.6964L15.2544 11.4035ZM0 10.5499H14.9009V11.5499H0V10.5499ZM0.5 9.0499V11.0499H-0.5V9.0499H0.5ZM15.6007 9.5499H0V8.5499H15.6007V9.5499Z" fill="#17212B" mask="url(#path-1-inside-1_8_796)"/>
</svg>
