<svg width="1098" height="122" viewBox="0 0 1098 122" fill="none" xmlns="http://www.w3.org/2000/svg">
<g filter="url(#filter0_d_8_471)">
<path d="M51.056 32.888V51.512H39.728V43H2.544V1.016H13.872V32.888H33.264V1.016H44.592V32.888H51.056ZM95.063 1.016V10.808H68.247V17.144H93.783V26.808H68.247V33.208H95.063V43H56.919V1.016H95.063ZM140.122 1.016V16.952H160.794V1.016H172.122V43H160.794V27.064H140.122V43H128.794V1.016H140.122ZM225.584 41.272V43H214.384L211.12 35.256H191.536L188.272 43H177.072V41.272L195.056 1.016H207.6L225.584 41.272ZM207.152 25.72L201.328 11.832L195.503 25.72H207.152ZM241.81 1.016V32.888H257.362V1.016H268.69V32.888H284.242V1.016H295.57V43H230.482V1.016H241.81ZM349.021 41.272V43H337.821L334.557 35.256H314.973L311.709 43H300.509V41.272L318.493 1.016H331.037L349.021 41.272ZM330.589 25.72L324.765 11.832L318.941 25.72H330.589ZM412.786 21.56C414.663 22.5413 416.093 23.8 417.074 25.336C418.055 26.872 418.546 28.664 418.546 30.712V31.352C418.546 34.9787 417.117 37.8373 414.258 39.928C411.442 41.976 407.538 43 402.546 43H375.794V1.016H401.266C406.343 1.016 410.269 1.99733 413.042 3.96C415.815 5.92267 417.202 8.71733 417.202 12.344V12.984C417.202 16.6533 415.73 19.512 412.786 21.56ZM387.122 10.744V17.4H401.266C402.845 17.4 403.997 17.1653 404.722 16.696C405.49 16.184 405.874 15.416 405.874 14.392V13.752C405.874 11.7467 404.338 10.744 401.266 10.744H387.122ZM406.962 29.432C406.962 27.3413 405.405 26.296 402.29 26.296H387.122V33.272H402.29C405.405 33.272 406.962 32.2053 406.962 30.072V29.432ZM436.732 1.016V43H425.404V1.016H436.732ZM494.769 32.888V51.512H483.441V43H452.721V51.512H441.393V32.888H446.705C448.838 29.5173 449.969 25.2293 450.097 20.024L450.481 1.016H488.305V32.888H494.769ZM460.529 20.088C460.401 25.3787 459.398 29.6453 457.521 32.888H476.977V11.128L460.721 11.192L460.529 20.088ZM542.717 1.016V43H531.389V11.128H511.997V43H500.669V1.016H542.717ZM575.282 43.832C570.205 43.832 565.725 42.9573 561.842 41.208C558.002 39.416 555.037 36.8987 552.946 33.656C550.855 30.3707 549.81 26.5733 549.81 22.264V21.816C549.81 17.464 550.855 13.6667 552.946 10.424C555.037 7.13867 558.002 4.62133 561.842 2.872C565.725 1.08 570.205 0.183998 575.282 0.183998C580.445 0.183998 584.946 1.08 588.786 2.872C592.626 4.62133 595.591 7.13867 597.682 10.424C599.773 13.6667 600.818 17.464 600.818 21.816V22.264C600.818 26.616 599.773 30.4133 597.682 33.656C595.591 36.8987 592.626 39.416 588.786 41.208C584.946 42.9573 580.445 43.832 575.282 43.832ZM575.282 33.272C584.626 33.272 589.298 29.6667 589.298 22.456V21.688C589.298 18.104 588.103 15.3947 585.714 13.56C583.367 11.6827 579.89 10.744 575.282 10.744C570.759 10.744 567.303 11.6827 564.914 13.56C562.525 15.4373 561.33 18.1467 561.33 21.688V22.456C561.33 25.9973 562.503 28.6853 564.85 30.52C567.197 32.3547 570.674 33.272 575.282 33.272ZM644.911 21.56C646.788 22.5413 648.218 23.8 649.199 25.336C650.18 26.872 650.671 28.664 650.671 30.712V31.352C650.671 34.9787 649.242 37.8373 646.383 39.928C643.567 41.976 639.663 43 634.671 43H607.919V1.016H633.391C638.468 1.016 642.394 1.99733 645.167 3.96C647.94 5.92267 649.327 8.71733 649.327 12.344V12.984C649.327 16.6533 647.855 19.512 644.911 21.56ZM619.247 10.744V17.4H633.391C634.97 17.4 636.122 17.1653 636.847 16.696C637.615 16.184 637.999 15.416 637.999 14.392V13.752C637.999 11.7467 636.463 10.744 633.391 10.744H619.247ZM639.087 29.432C639.087 27.3413 637.53 26.296 634.415 26.296H619.247V33.272H634.415C637.53 33.272 639.087 32.2053 639.087 30.072V29.432ZM668.857 1.016V43H657.529V1.016H668.857ZM726.894 32.888V51.512H715.566V43H684.846V51.512H673.518V32.888H678.83C680.963 29.5173 682.094 25.2293 682.222 20.024L682.606 1.016H720.43V32.888H726.894ZM692.654 20.088C692.526 25.3787 691.523 29.6453 689.646 32.888H709.102V11.128L692.846 11.192L692.654 20.088ZM777.146 41.272V43H765.946L762.682 35.256H743.098L739.834 43H728.634V41.272L746.618 1.016H759.162L777.146 41.272ZM758.714 25.72L752.89 11.832L747.066 25.72H758.714ZM824.335 43H813.007V11.128L797.007 11.192L796.687 25.208C796.431 37.0693 791.46 43 781.775 43H778.062V32.888H779.599C781.988 32.888 783.673 32.248 784.655 30.968C785.679 29.688 786.233 27.4693 786.319 24.312L786.767 1.016H824.335V43ZM844.747 1.016V14.712H859.659C864.992 14.712 869.067 15.8853 871.883 18.232C874.742 20.5787 876.171 23.9493 876.171 28.344V29.112C876.171 33.5493 874.742 36.9627 871.883 39.352C869.067 41.7413 864.992 42.936 859.659 42.936H833.419V1.016H844.747ZM859.403 33.144C861.11 33.144 862.411 32.8027 863.307 32.12C864.203 31.4373 864.651 30.4347 864.651 29.112V28.408C864.651 27.128 864.203 26.168 863.307 25.528C862.411 24.8453 861.11 24.504 859.403 24.504H844.747V33.144H859.403ZM894.435 1.016V16.952H915.107V1.016H926.435V43H915.107V27.064H894.435V43H883.107V1.016H894.435ZM946.232 1.016V43H934.904V1.016H946.232ZM978.477 43.832C973.314 43.832 968.77 42.9573 964.845 41.208C960.962 39.416 957.954 36.8987 955.821 33.656C953.73 30.4133 952.685 26.616 952.685 22.264V21.816C952.685 17.464 953.73 13.6667 955.821 10.424C957.954 7.13867 960.962 4.62133 964.845 2.872C968.77 1.08 973.314 0.183998 978.477 0.183998C983.298 0.183998 987.629 0.973331 991.469 2.552C995.309 4.13066 998.296 6.30666 1000.43 9.08C1002.61 11.8533 1003.69 14.9893 1003.69 18.488V19H992.109V18.488C992.109 16.1413 990.85 14.264 988.333 12.856C985.858 11.448 982.573 10.744 978.477 10.744C968.962 10.744 964.205 14.392 964.205 21.688V22.456C964.205 26.0827 965.378 28.792 967.725 30.584C970.072 32.376 973.656 33.272 978.477 33.272C982.701 33.272 986.029 32.5893 988.461 31.224C990.893 29.8587 992.109 27.9813 992.109 25.592V25.144H1003.69V25.592C1003.69 29.0907 1002.61 32.2267 1000.43 35C998.296 37.7733 995.309 39.9493 991.469 41.528C987.629 43.064 983.298 43.832 978.477 43.832ZM1005.08 11.128V1.016H1047.52V11.128H1031.96V43H1020.64V11.128H1005.08ZM1064.31 1.016V14.712H1079.22C1084.55 14.712 1088.63 15.8853 1091.45 18.232C1094.3 20.5787 1095.73 23.9493 1095.73 28.344V29.112C1095.73 33.5493 1094.3 36.9627 1091.45 39.352C1088.63 41.7413 1084.55 42.936 1079.22 42.936H1052.98V1.016H1064.31ZM1078.97 33.144C1080.67 33.144 1081.97 32.8027 1082.87 32.12C1083.77 31.4373 1084.21 30.4347 1084.21 29.112V28.408C1084.21 27.128 1083.77 26.168 1082.87 25.528C1081.97 24.8453 1080.67 24.504 1078.97 24.504H1064.31V33.144H1078.97ZM39.536 95.56C41.4133 96.5413 42.8427 97.8 43.824 99.336C44.8053 100.872 45.296 102.664 45.296 104.712V105.352C45.296 108.979 43.8667 111.837 41.008 113.928C38.192 115.976 34.288 117 29.296 117H2.544V75.016H28.016C33.0933 75.016 37.0187 75.9973 39.792 77.96C42.5653 79.9227 43.952 82.7173 43.952 86.344V86.984C43.952 90.6533 42.48 93.512 39.536 95.56ZM13.872 84.744V91.4H28.016C29.5947 91.4 30.7467 91.1653 31.472 90.696C32.24 90.184 32.624 89.416 32.624 88.392V87.752C32.624 85.7467 31.088 84.744 28.016 84.744H13.872ZM33.712 103.432C33.712 101.341 32.1547 100.296 29.04 100.296H13.872V107.272H29.04C32.1547 107.272 33.712 106.205 33.712 104.072V103.432ZM101.907 117.832C96.8297 117.832 92.3497 116.957 88.467 115.208C84.627 113.416 81.6617 110.899 79.571 107.656C77.4803 104.371 76.435 100.573 76.435 96.264V95.816C76.435 91.464 77.4803 87.6667 79.571 84.424C81.6617 81.1387 84.627 78.6213 88.467 76.872C92.3497 75.08 96.8297 74.184 101.907 74.184C107.07 74.184 111.571 75.08 115.411 76.872C119.251 78.6213 122.216 81.1387 124.307 84.424C126.398 87.6667 127.443 91.464 127.443 95.816V96.264C127.443 100.616 126.398 104.413 124.307 107.656C122.216 110.899 119.251 113.416 115.411 115.208C111.571 116.957 107.07 117.832 101.907 117.832ZM101.907 107.272C111.251 107.272 115.923 103.667 115.923 96.456V95.688C115.923 92.104 114.728 89.3947 112.339 87.56C109.992 85.6827 106.515 84.744 101.907 84.744C97.3843 84.744 93.9283 85.6827 91.539 87.56C89.1497 89.4373 87.955 92.1467 87.955 95.688V96.456C87.955 99.9973 89.1283 102.685 91.475 104.52C93.8217 106.355 97.299 107.272 101.907 107.272ZM174.032 75.016V84.744H145.872V91.272H160.784C166.203 91.272 170.299 92.3387 173.072 94.472C175.888 96.5627 177.296 99.6773 177.296 103.816V104.456C177.296 108.509 175.888 111.624 173.072 113.8C170.256 115.933 166.16 117 160.784 117H134.544V75.016H174.032ZM160.592 107.272C162.256 107.272 163.536 106.995 164.432 106.44C165.371 105.885 165.84 105.075 165.84 104.008V103.368C165.84 102.301 165.371 101.491 164.432 100.936C163.536 100.381 162.256 100.104 160.592 100.104H145.872V107.272H160.592ZM208.602 117.832C203.439 117.832 198.895 116.957 194.97 115.208C191.087 113.416 188.079 110.899 185.946 107.656C183.855 104.413 182.81 100.616 182.81 96.264V95.816C182.81 91.464 183.855 87.6667 185.946 84.424C188.079 81.1387 191.087 78.6213 194.97 76.872C198.895 75.08 203.439 74.184 208.602 74.184C213.423 74.184 217.754 74.9733 221.594 76.552C225.434 78.1307 228.421 80.3067 230.554 83.08C232.73 85.8533 233.818 88.9893 233.818 92.488V93H222.234V92.488C222.234 90.1413 220.975 88.264 218.458 86.856C215.983 85.448 212.698 84.744 208.602 84.744C199.087 84.744 194.33 88.392 194.33 95.688V96.456C194.33 100.083 195.503 102.792 197.85 104.584C200.197 106.376 203.781 107.272 208.602 107.272C212.826 107.272 216.154 106.589 218.586 105.224C221.018 103.859 222.234 101.981 222.234 99.592V99.144H233.818V99.592C233.818 103.091 232.73 106.227 230.554 109C228.421 111.773 225.434 113.949 221.594 115.528C217.754 117.064 213.423 117.832 208.602 117.832ZM281.585 117H270.257V85.128L254.257 85.192L253.937 99.208C253.681 111.069 248.71 117 239.025 117H235.312V106.888H236.849C239.238 106.888 240.923 106.248 241.905 104.968C242.929 103.688 243.483 101.469 243.569 98.312L244.017 75.016H281.585V117ZM334.445 75.016V76.744L318.701 106.568C316.653 110.451 314.52 113.16 312.301 114.696C310.125 116.232 307.288 117 303.789 117H293.549V106.888H303.469C304.28 106.888 304.941 106.803 305.453 106.632L287.661 76.744V75.016H299.373L311.917 97.224L322.797 75.016H334.445ZM372.607 75.016V85.128H349.247V117H337.919V75.016H372.607ZM397.782 117.832C392.705 117.832 388.225 116.957 384.342 115.208C380.502 113.416 377.537 110.899 375.446 107.656C373.355 104.371 372.31 100.573 372.31 96.264V95.816C372.31 91.464 373.355 87.6667 375.446 84.424C377.537 81.1387 380.502 78.6213 384.342 76.872C388.225 75.08 392.705 74.184 397.782 74.184C402.945 74.184 407.446 75.08 411.286 76.872C415.126 78.6213 418.091 81.1387 420.182 84.424C422.273 87.6667 423.318 91.464 423.318 95.816V96.264C423.318 100.616 422.273 104.413 420.182 107.656C418.091 110.899 415.126 113.416 411.286 115.208C407.446 116.957 402.945 117.832 397.782 117.832ZM397.782 107.272C407.126 107.272 411.798 103.667 411.798 96.456V95.688C411.798 92.104 410.603 89.3947 408.214 87.56C405.867 85.6827 402.39 84.744 397.782 84.744C393.259 84.744 389.803 85.6827 387.414 87.56C385.025 89.4373 383.83 92.1467 383.83 95.688V96.456C383.83 99.9973 385.003 102.685 387.35 104.52C389.697 106.355 393.174 107.272 397.782 107.272ZM467.411 95.56C469.288 96.5413 470.718 97.8 471.699 99.336C472.68 100.872 473.171 102.664 473.171 104.712V105.352C473.171 108.979 471.742 111.837 468.883 113.928C466.067 115.976 462.163 117 457.171 117H430.419V75.016H455.891C460.968 75.016 464.894 75.9973 467.667 77.96C470.44 79.9227 471.827 82.7173 471.827 86.344V86.984C471.827 90.6533 470.355 93.512 467.411 95.56ZM441.747 84.744V91.4H455.891C457.47 91.4 458.622 91.1653 459.347 90.696C460.115 90.184 460.499 89.416 460.499 88.392V87.752C460.499 85.7467 458.963 84.744 455.891 84.744H441.747ZM461.587 103.432C461.587 101.341 460.03 100.296 456.915 100.296H441.747V107.272H456.915C460.03 107.272 461.587 106.205 461.587 104.072V103.432ZM522.57 75.016V76.744L506.826 106.568C504.778 110.451 502.645 113.16 500.426 114.696C498.25 116.232 495.413 117 491.914 117H481.674V106.888H491.594C492.405 106.888 493.066 106.803 493.578 106.632L475.786 76.744V75.016H487.498L500.042 97.224L510.922 75.016H522.57ZM563.036 95.56C564.913 96.5413 566.343 97.8 567.324 99.336C568.305 100.872 568.796 102.664 568.796 104.712V105.352C568.796 108.979 567.367 111.837 564.508 113.928C561.692 115.976 557.788 117 552.796 117H526.044V75.016H551.516C556.593 75.016 560.519 75.9973 563.292 77.96C566.065 79.9227 567.452 82.7173 567.452 86.344V86.984C567.452 90.6533 565.98 93.512 563.036 95.56ZM537.372 84.744V91.4H551.516C553.095 91.4 554.247 91.1653 554.972 90.696C555.74 90.184 556.124 89.416 556.124 88.392V87.752C556.124 85.7467 554.588 84.744 551.516 84.744H537.372ZM557.212 103.432C557.212 101.341 555.655 100.296 552.54 100.296H537.372V107.272H552.54C555.655 107.272 557.212 106.205 557.212 104.072V103.432ZM618.459 115.272V117H607.259L603.995 109.256H584.411L581.147 117H569.947V115.272L587.931 75.016H600.475L618.459 115.272ZM600.027 99.72L594.203 85.832L588.378 99.72H600.027ZM634.685 75.016V90.952H655.357V75.016H666.685V117H655.357V101.064H634.685V117H623.357V75.016H634.685ZM687.122 75.016V90.952H707.794V75.016H719.122V117H707.794V101.064H687.122V117H675.794V75.016H687.122ZM738.92 75.016V117H727.592V75.016H738.92Z" fill="white"/>
</g>
<defs>
<filter id="filter0_d_8_471" x="0.544922" y="0.184082" width="1097.19" height="121.648" filterUnits="userSpaceOnUse" color-interpolation-filters="sRGB">
<feFlood flood-opacity="0" result="BackgroundImageFix"/>
<feColorMatrix in="SourceAlpha" type="matrix" values="0 0 0 0 0 0 0 0 0 0 0 0 0 0 0 0 0 0 127 0" result="hardAlpha"/>
<feOffset dy="2"/>
<feGaussianBlur stdDeviation="1"/>
<feComposite in2="hardAlpha" operator="out"/>
<feColorMatrix type="matrix" values="0 0 0 0 0 0 0 0 0 0 0 0 0 0 0 0 0 0 0.25 0"/>
<feBlend mode="normal" in2="BackgroundImageFix" result="effect1_dropShadow_8_471"/>
<feBlend mode="normal" in="SourceGraphic" in2="effect1_dropShadow_8_471" result="shape"/>
</filter>
</defs>
</svg>
